<svg width="1920" height="1059" viewBox="0 0 1920 1059" fill="none" xmlns="http://www.w3.org/2000/svg">
<mask id="mask0_17_234" style="mask-type:alpha" maskUnits="userSpaceOnUse" x="0" y="0" width="1920" height="1059">
<rect width="1920" height="1059" fill="#009394"/>
</mask>
<g mask="url(#mask0_17_234)">
<g opacity="0.5">
<g opacity="0.3">
<path opacity="0.3" d="M1640.3 1202.9V1201.9C1640.9 1202.2 1642.5 1201.9 1643.5 1201.9C1645.4 1201.9 1653.5 1203.2 1656.4 1201.3C1659.3 1199.4 1659.3 1195.2 1664.1 1194.9C1664.1 1199.4 1663.8 1199.7 1668.9 1199.7C1661.5 1200.3 1649.9 1205.5 1649.9 1212.6C1649.9 1215.5 1654.4 1220.7 1656.3 1220.7C1658.9 1220.7 1664.8 1212.1 1671.2 1210.1C1672.8 1209.8 1694.8 1201.4 1694.8 1198.8C1694.8 1195.3 1686.4 1194.9 1684.5 1194.9C1675.2 1194.9 1660.4 1185.9 1660.4 1177.9C1660.4 1176 1663 1173.4 1663.6 1170.2C1662 1170.2 1658.5 1169.3 1655.6 1169.3C1657.5 1166.7 1669.1 1165.1 1669.1 1158.7C1669.1 1152.6 1659.1 1153.9 1652.4 1153.9C1638.3 1153.9 1631.8 1163.8 1622.2 1165.1C1626.4 1156.4 1633.1 1159.3 1640.2 1152.2C1644.7 1147.7 1641.5 1144.8 1648.2 1142.5C1660.4 1138.7 1667.5 1140.9 1679.7 1140.9C1695.8 1140.9 1704.6 1146.2 1714.1 1133.8C1718.7 1127.8 1744.6 1126.4 1744.6 1116.1C1744.6 1108.7 1742 1105.5 1739.1 1100.7C1736.5 1100.7 1740.2 1097.5 1736.5 1095.9V1092C1729.1 1096.2 1713.7 1101.6 1706 1101.6C1705 1101.6 1703.1 1101 1702.8 1100.3C1709.2 1096.8 1727.1 1094.3 1729 1088.2C1729.3 1086.6 1726.6 1086.1 1726.3 1084.5C1718.6 1085.5 1702.2 1081.9 1702.2 1071V1070C1695.1 1070 1691 1065.5 1686.8 1062.3C1688.4 1061.4 1691.6 1060.4 1691.6 1056.5C1691.6 1053.3 1688.7 1050.7 1689.3 1047.5C1686.4 1046.5 1676 1039.9 1678.7 1034C1682.1 1026.7 1668.4 1025 1667.5 1016.3C1666.5 1016.3 1663.3 1013.4 1662 1012.1C1659.8 1013.7 1654.6 1016.6 1654.6 1021.1C1654.6 1025.9 1644.3 1037.8 1636.3 1037.8C1630.5 1037.8 1629.5 1030.7 1625.7 1030.7C1620.2 1030.7 1618 1014.9 1617 1008.2C1615.7 999.2 1598.3 1005.6 1598.3 993.7C1589.3 992.4 1587.4 981.5 1578.4 981.5C1574.2 981.5 1574.2 984.7 1569.4 984.7C1560.1 984.7 1554.3 979.2 1545.3 979.2C1540.5 979.2 1535.7 981.5 1535.7 987.2C1535.7 990.4 1547 995.1 1536.7 1001.7C1532.6 1004.3 1542.6 1011.4 1543.1 1016.2C1544.2 1025.7 1535.1 1028.1 1531 1029.7C1538.4 1042.2 1549.6 1046.4 1549.6 1067.6C1549.6 1073.4 1530.3 1087.8 1523.9 1089.1C1535.1 1094.8 1530.7 1112.3 1535.2 1117.7C1533.9 1119.6 1529.7 1121.9 1529.4 1125.4C1525.5 1125.4 1522.8 1131.7 1519.8 1129.3C1511.8 1122.9 1500.5 1112.9 1500.5 1103.6C1500.5 1093.3 1502.4 1085.3 1493.4 1079.5H1472.5C1460.6 1070.8 1447.1 1065.7 1433 1060.2C1430.4 1059.3 1423 1053.8 1418.5 1053.8C1413.7 1053.8 1411.4 1058.6 1406.6 1058.6C1406.6 1050.9 1401.5 1032.9 1394.4 1032.9C1391.2 1032.9 1389.6 1035.5 1386.4 1036.1C1387.7 1032.2 1386.4 1030.9 1386.4 1021.6C1386.4 1008.7 1390.3 1001 1397.6 993.6C1400.2 991 1405.6 978.5 1408.2 977.5C1413.7 975.6 1423.3 978.8 1423.3 971.1C1423.3 966.3 1411 965.9 1406.5 963.3C1409.4 964.3 1399.7 957.7 1425.8 965.7C1432.6 967.8 1428.5 958.8 1432.3 958.8C1432.9 958.8 1435.5 958.8 1439.4 958.8C1447.1 958.8 1451.3 950.8 1456.4 946.9V942.1C1445.5 939.5 1434.6 941.1 1429.7 931.5C1429.7 931.5 1433.2 931.5 1435.5 931.5C1439.7 934.1 1443.9 938.9 1450 938.9C1455.1 938.9 1464.5 932.2 1464.5 928.3C1464.5 927 1459.7 921.2 1462.2 921.2C1469.3 921.2 1471.8 927.6 1476.3 927.6C1479.2 927.6 1481.1 925 1486.9 925C1485.3 923.1 1486.8 917.4 1490.8 923.4C1492.9 926.6 1509.4 912.5 1509.4 908.3C1509.4 905.4 1502 902.2 1502 900.2C1502 898 1497.7 892.8 1507.8 888C1509.1 885.1 1507.8 885.4 1507.8 880C1497.5 880 1500.1 872 1486.9 872C1484 871.7 1481.8 869.7 1478.9 869.7C1475 869.7 1470.9 872.3 1470.9 876.1C1470.9 880.3 1475.7 881.9 1475.7 884.8C1475.7 888 1468.3 888 1466.7 891.2C1464.1 896.7 1465 901 1460.4 906.9C1453.2 916.1 1443.6 901.2 1443.6 897.6C1443.6 893.4 1449.1 894.4 1449.1 889.6C1449.1 887.3 1439.8 878.3 1437.2 878.3C1427.9 878.3 1434.3 892.1 1424.4 892.1C1424.4 886.6 1423.8 882.8 1417 879.6C1418 878 1418.6 877 1420.2 875.7C1415.1 872.5 1408 875.7 1404.1 870.9C1406.3 869.6 1412.1 867.4 1412.1 863.2C1412.1 857.1 1402.6 857.3 1402.4 852.6C1402.1 842.6 1395 836.2 1382.5 835.9C1376.4 835.8 1379 839.8 1379.3 843C1375.5 844 1370.3 843 1370.3 847.8C1370.3 851 1372.9 852.6 1372.9 855.8C1372.9 859 1368.7 858.7 1368.7 863.2C1368.7 873.8 1390.5 867.4 1390.5 878.3C1390.5 880.3 1387.9 887.9 1387.9 887.9C1390.2 886.6 1392.1 886 1394.7 884.7C1398.9 897.9 1377.7 891.5 1377.7 907.2C1367.2 910 1375.5 899.5 1372.9 896C1371.9 894.4 1363.3 892.1 1358.4 892.1C1352.6 892.1 1350.4 895.6 1350.4 902.4C1344.9 901.7 1341.4 902.4 1323.1 902.4C1305.7 902.4 1285.5 896.3 1281.3 883.1C1275.5 884.7 1256.2 885 1256.2 892.1C1256.2 894.3 1257.7 895.6 1260.3 895.6C1265.4 895.6 1273.9 893.1 1277.8 890.5C1279.1 901.1 1262.7 892.4 1262.7 903.4C1262.7 905.6 1266.2 913 1264.6 913C1258.2 913 1256.9 905 1251.4 902.4L1246.6 900.1C1238.9 900.1 1233.7 900.1 1226 900.1C1219.6 900.1 1215.4 902.7 1208.3 903C1195.6 903.6 1195.6 898.9 1195.6 898C1195.6 895.1 1205.4 896.3 1207.4 894.4C1198.4 882 1200.1 884 1181.7 885.4C1162.1 886.9 1152.4 870.9 1132.8 870.9C1126.7 870.9 1124.1 875.1 1119 875.1C1115.5 875.1 1111.9 869 1111.3 866.4C1105.2 867.7 1105.2 874.8 1098.8 874.8C1092.7 874.8 1084 860.3 1082.1 860.3C1075.7 860.3 1077.9 869.6 1071.2 869.6C1068.6 869.6 1066.4 867.7 1065.4 865.1C1055.5 867.4 1051.9 868 1042.9 871.5C1039.4 872.2 1030.9 878.3 1028.1 875.7C1019.7 867.8 1021.2 877.8 1018.1 877.9C997.2 878.7 1011.7 886.3 1008.8 886.3C1000.8 886.3 986.3 884.7 973.1 876.7C972.6 876.4 968.6 873.5 968.6 872.5C966.4 873.8 968 873.2 964.8 872.5V1011.7C969 1015.9 978.6 1010.4 982.5 1016.5C985.4 1021 992.2 1029.4 998.6 1029.4C1003.1 1029.4 1003.1 1022.7 1007.6 1021.3C1009.5 1020.7 1011.5 1021.3 1013.7 1019.7C1023.3 1029.3 1028.2 1032.9 1036.5 1045.4C1037.2 1046.7 1039.7 1047.3 1040.7 1050.2C1042 1054.1 1043.6 1058.9 1047.1 1062.4C1049 1064.3 1052.9 1063.4 1054.8 1065.9C1057.7 1068.8 1063.2 1070.4 1063.2 1077.1C1063.2 1080.6 1058.7 1081.3 1058.7 1083.5C1058.7 1085.1 1060.6 1086.1 1060.6 1088C1060.6 1092.2 1059.3 1100.9 1063.8 1102.2C1066.4 1102.8 1068.9 1102.8 1070.9 1104.8C1073.8 1107.7 1070.3 1111.9 1074.1 1114.4C1074.1 1114.4 1082.5 1119.5 1082.8 1120.5C1085 1127.9 1085.7 1136.6 1096.6 1136.6C1098.2 1143 1109.5 1138.8 1112 1147.2C1113 1150.4 1121 1151.1 1124.2 1154.3C1124.8 1155 1126.5 1155.6 1127.8 1156.3H1127.7H1384.8V1153C1389 1156.2 1388.7 1158.8 1392.8 1161H1408.9C1415.3 1167.4 1423.7 1167.4 1435.6 1167.4C1439.8 1166.1 1440.4 1167.4 1444 1165.8C1447.2 1164.2 1445.9 1159 1449.1 1159C1453 1159 1455.5 1164.8 1456.8 1166.1C1457.4 1164.8 1457.1 1162.2 1457.1 1161.6C1458.1 1161.6 1458.7 1161.6 1459.7 1161.6C1461.6 1161.6 1475.1 1172.5 1475.8 1173.8C1477.7 1177.7 1475.8 1180.9 1478.4 1183.4C1485.8 1190.8 1495.8 1189.2 1503.8 1194.3H1512.2C1516.1 1196.9 1520.9 1200.1 1520.9 1204.9C1520.9 1207.2 1519.6 1208.8 1517.7 1208.8C1513.8 1208.8 1510 1204.6 1508.7 1203.3C1507.4 1208.4 1504.5 1223.9 1500 1223.9C1496.1 1227.8 1492.9 1230 1492.9 1234.8C1493.9 1236.4 1495.8 1238.7 1497.7 1238.7C1500.6 1238.7 1500.9 1236.8 1502.2 1235.5C1505.1 1232.6 1509.9 1233 1514.4 1233C1518.6 1233 1520.5 1235.3 1522.1 1234.3C1524.1 1233.3 1525.9 1232.4 1527.3 1231.7C1526.7 1229.8 1526 1228 1525.4 1226.5C1525.1 1225.2 1523.5 1224.6 1523.5 1223.3C1523.5 1221.7 1526.7 1221.1 1527.7 1220.7C1534.8 1218.4 1549.9 1214.6 1557.9 1214.6C1558.6 1214.3 1570.3 1202.6 1572.3 1201C1573.9 1199.7 1581.5 1200.1 1589.1 1200.1C1592 1200.1 1594.2 1200.1 1597.1 1200.1C1600.1 1200.1 1603.1 1199.2 1605.2 1199C1608.4 1198.6 1607.5 1197.2 1608.6 1196C1614.4 1190.1 1614.3 1179.2 1622.4 1173.8C1626.3 1178.6 1632.3 1171.6 1634.9 1176.1C1639.6 1184.3 1636.6 1195.9 1640.6 1203.8L1640.3 1202.9Z" fill="white"/>
<path opacity="0.3" d="M964.7 873.1V1012.3C968.9 1016.5 978.5 1011 982.4 1017.1C985.3 1021.6 992.1 1030 998.5 1030C1003 1030 1003 1023.3 1007.5 1021.9C1009.4 1021.3 1011.4 1021.9 1013.6 1020.3C1023.2 1029.9 1028.1 1033.5 1036.4 1046C1037.1 1047.3 1039.6 1047.9 1040.6 1050.8C1041.9 1054.7 1043.5 1059.5 1047 1063C1048.9 1064.9 1052.8 1064 1054.7 1066.5C1057.6 1069.4 1063.1 1071 1063.1 1077.7C1063.1 1081.2 1058.6 1081.9 1058.6 1084.1C1057 1084.1 1057 1084.4 1055.4 1084.4C1049.9 1084.4 1041.9 1078.3 1041.9 1074.8C1041.9 1071.9 1041.9 1072.9 1041.9 1070C1041.9 1065.2 1038 1065.2 1032.3 1065.2C1027.8 1065.2 1026.5 1062.3 1026.5 1060.4C1026.5 1057.8 1031.3 1057.5 1031.3 1055C1031.3 1052.7 1031.3 1051.5 1031.3 1050.8C1025.2 1051.1 1026.8 1055 1022.6 1055C1021.3 1055 1017.8 1052.1 1017.8 1050.2C1017.8 1046.3 1020.1 1045.1 1021 1043.4C1019.4 1041.8 1016.5 1038.9 1015.2 1041.1C1010.4 1041.1 1008.1 1038.9 1005.6 1036.3C1004.6 1038.9 1003.4 1042.1 1000.8 1042.1C994 1042.1 989.5 1032.8 985.7 1029.9C977.3 1023.8 966.4 1024.1 956.8 1018.6H939.1C928.5 1015.1 914.3 1013.8 908.9 1002.5C905 1004.1 898.6 1005.7 895.7 1007.3C896.7 1009.5 897.3 1010.5 898.9 1011.8C894.7 1018.2 874.2 1029.8 866.8 1029.8C865.5 1029.8 863.6 1028.8 863.6 1027.5C863.6 1025.6 865.5 1025.2 866.2 1024.9C864.6 1022.7 865.9 1022.7 865.9 1021.1C865.9 1014 870.7 1008.5 880.1 1005.7C880.1 1004.7 880.4 1003.5 880.4 1002.5C877.5 1002.5 878.1 1002.5 876.5 1002.5C868.8 1002.5 847.6 1020.2 847.6 1030.8C847.6 1032.4 847.6 1034 847.6 1035.6C847.6 1043 840.5 1045.6 833.1 1048.5C828.9 1050.1 827.6 1053.3 825.1 1056.5C820.3 1062.6 809.3 1065.8 804.2 1071C799.4 1075.8 787.8 1079.4 778.5 1080.6C766.9 1082.5 760.5 1096 747 1092.2C750.9 1086.1 757 1088.7 762.4 1085.4C766.3 1083.2 769.2 1076.7 772.7 1074.8C778.2 1071.6 784.3 1074.8 788.1 1070C793.6 1062.9 806.1 1057.5 813.8 1052.3C821.2 1047.5 821.2 1037.8 828.9 1033H824.1C819.3 1034.9 817 1037.2 812.2 1037.2C808.3 1037.2 806.7 1035.6 803.5 1034.6C802.5 1037.2 801.6 1038.1 801.3 1040.4C793.6 1037.5 791.3 1035.6 785.9 1031.4C785.3 1033.3 785.6 1034.9 785.6 1036.2C782.7 1036.2 783.3 1036.2 781.7 1036.2C779.8 1036.2 778.2 1038.8 776.9 1038.8C775 1038.8 773.7 1033.3 773.7 1030.8C773.7 1026.9 773.7 1026.9 773.7 1024.4C773.7 1023.4 774 1019.6 771.1 1019.6C768.5 1019.6 766 1025.1 764.7 1025.1C760.5 1025.1 745.4 1013.2 743.2 1010.3C744.8 1010.3 746.4 1009.3 748 1009.3C745.4 1002.2 735.2 1000.6 735.2 995.5C735.2 985.9 752.5 977.8 759.3 977.8C762.2 977.8 784.1 969.1 784.1 964.9C784.1 962.6 779 958.1 778.6 957.2C781.8 955.3 781.2 955.6 783.4 956.9V952.1C780.5 951.8 780.5 952.1 778.6 952.1C773.5 952.1 771.5 957.6 764.8 957.6C758.4 957.6 756.1 954.4 751.3 955.3C744.6 955.3 736.8 955.3 734.3 955.3C734 950.5 730.1 949.2 730.1 946.3C730.1 945.3 730.7 944.1 731.1 943.1C725.9 943.1 723.1 941.2 721.4 938C729.4 933.2 742.6 929 750.3 923.9H756.1C756.1 934.2 761.2 931.3 768 931.3C772.5 931.3 773.1 932.3 777 931.3C773.8 921 767 920.4 757.7 915.8C755.1 914.5 751.3 904.9 748.1 903C744.3 900.7 731.1 898.2 731.1 895.9C731.1 895.9 735.6 887.9 735.9 886.9H753.6C763.2 874 777.7 861.8 794.7 856.3C799.2 855 802.1 857.3 806.6 855.7C811.7 853.8 815 846.7 820.4 846.7C824.6 846.7 826.2 850.2 830.4 851.5C828.8 853.4 828.5 854.1 827.5 855.7C830.7 856.3 833.9 854.1 835.5 851.5C839 852.8 840 853.7 842.9 854.7H859C862.9 857.3 864.1 858.9 868.6 861.1H893C899.4 867.5 919.3 869.1 929.3 869.1C935.1 869.1 938.6 866.9 944.4 866.9C953.7 866.9 956.6 870.8 964.7 873.3V872.3V873.1V873.1Z" fill="white"/>
<path opacity="0.3" d="M1016.1 1055.7C1016.1 1056.7 1018.7 1056 1019.3 1055.7C1018.7 1060.2 1021.9 1064.7 1018.7 1067.9C1014.8 1064 1013.5 1060.2 1013.5 1055C1008.7 1054.4 1004.8 1050.2 1004.8 1045.4C1004.8 1042.8 1007.4 1042.2 1008.6 1042.2C1014.4 1042.2 1011.5 1044.8 1016 1042.2C1016.1 1050.5 1014.5 1050.5 1016.1 1055.7Z" fill="white"/>
<path opacity="0.3" d="M1316.6 870.8C1314 870.8 1312.4 871.8 1312.4 874C1312.4 876.6 1315.9 876.6 1317.2 876.6C1317.5 879.1 1319.1 880.1 1320.4 881.1C1317.5 887.2 1310.1 886.9 1302.1 886.9C1289.6 886.9 1285.1 877.3 1275.7 877.3C1269.9 877.3 1272.2 880.8 1267.3 883.1C1259 887.3 1250.9 884.7 1244.2 889.5C1229.8 889.5 1224 889.5 1215.3 889.5C1209.8 889.5 1213.4 884.3 1209.5 881.5C1206 878.9 1196.3 879.9 1191.8 879.9C1184.7 879.9 1178.9 872.5 1176.7 868.7C1184.4 862.9 1194.4 861.3 1207.9 861.3C1212.7 861.3 1214.6 861 1218.5 860.7C1216.2 859.4 1213.7 857.5 1210.5 857.5C1204.4 857.5 1196.7 857.5 1193.5 857.5C1186.4 857.5 1168.7 860.7 1168.7 851.7C1168.7 844.6 1178 847.2 1181.6 844.9C1176.5 843.6 1174.5 844.6 1170.4 844.6C1166.9 844.6 1160.7 839.8 1160.7 838.2C1160.7 822.4 1189.9 810.9 1201.5 810.9C1206 810.9 1205.7 820.2 1207 822.1C1209.6 820.5 1211.8 816.3 1217 816.3C1226 816.3 1229.2 820.2 1231.5 825.9C1235 825.2 1237.6 824.6 1241.1 823.7C1240.8 820.8 1240.1 819.8 1239.5 817.9H1246.6C1251.1 819.2 1255.6 823.4 1257.2 826.9C1259.1 830.8 1256.9 838.8 1262.7 838.8C1265.3 838.8 1265.3 837.5 1266.9 836.2C1264.3 832 1259.5 816.9 1259.5 814C1259.5 811.4 1262.7 809.8 1265.3 809.8C1271.1 809.8 1269.2 812.4 1274.3 809.8C1274 808.8 1274 807.6 1274 806.6C1274 803.4 1278.5 801.1 1283.6 801.1C1289.4 801.1 1294.8 803.3 1294.8 808.2C1294.8 813 1287.7 815.9 1287.7 818.8C1287.7 830.4 1296.4 837.8 1296.4 846.1C1296.4 856.4 1323.4 863.5 1329.5 868.3C1323.7 872.1 1322.4 870.8 1316.6 870.8Z" fill="white"/>
<path opacity="0.3" d="M1118.9 846.1C1117.3 846.1 1115 841.3 1114.1 839.7C1111.5 836.2 1098.7 837.1 1098.7 833.3C1098.7 822.4 1114.8 813.4 1114.8 801.8C1114.8 799.2 1110.3 794.1 1110 790.6C1118 787.4 1121.6 790.6 1129.3 790.6C1133.2 790.6 1136.4 786.7 1142.2 788.4C1149.3 790.3 1152.5 794.2 1159.5 794.8C1162.4 797.7 1166.3 793.8 1170.4 793.8C1177.1 793.8 1192.9 800.2 1192.9 807.6C1192.9 811.1 1175.9 813.7 1172.7 814.7C1162.7 817.9 1148.6 831.4 1148.6 838.8C1148.6 841.4 1126.4 849.4 1123.8 849.4C1121.5 849.3 1120.6 846.1 1118.9 846.1Z" fill="white"/>
<path opacity="0.3" d="M1212.1 790.5C1208.2 790.5 1203.1 787.6 1203.1 785.7C1203.1 780.9 1207.9 781.8 1212.1 781.8C1210.2 779.2 1207.3 777.6 1206.6 774.4C1204.7 774.7 1203.1 776.7 1203.1 778.6C1197.6 779.2 1193.5 780.8 1189.6 780.8C1185.4 780.8 1180.6 778.6 1178.4 778.6C1175.8 778.6 1173.6 776.3 1173.6 773.8C1173.6 770.6 1174.9 771.2 1173.6 769C1176.8 768.3 1178.4 765.8 1181.6 765.8C1188 765.8 1191.2 768.7 1196.1 769C1190.6 768.3 1185.8 766.4 1181.6 764.8V760C1184.2 759.7 1187.1 760 1187.1 760C1188.4 760 1198.3 761.9 1201.6 762.2C1195.5 760.9 1190 761.6 1185.5 758.7C1186.8 756.8 1189.4 755.2 1191.9 755.2C1196.1 755.2 1197 756.5 1199.9 756.2C1196 756.5 1190.3 755.9 1190.3 752C1196.1 751.1 1198 752 1200.9 752C1202.2 752 1206.1 753 1206.4 756.8C1210.3 756.8 1213.1 756.8 1213.8 756.8C1223.5 756.8 1230.2 769 1244.3 769C1248.5 769 1250.1 767.7 1251.4 764.8C1247.9 764.8 1246.3 764.5 1245 763.8C1245.3 763.2 1247.2 762.5 1248.2 762.5V758.3C1246 758 1240.2 756.4 1240.2 753.5C1240.2 748.3 1248.5 745.8 1251.8 743.2C1253.7 744.5 1255.7 745.5 1257.9 745.5C1257.6 748.1 1257.9 749 1257.9 749.7C1257.9 754.5 1264 761.6 1270.1 761.6C1273 761.6 1274.6 757.8 1278.8 757.8C1282.7 757.8 1286.2 762 1286.2 765.8C1286.2 770.3 1278.5 779.9 1275.6 780.9C1273.7 781.5 1254.7 779.3 1254.7 780.3C1254.7 780.9 1234.1 785.5 1233.2 785.8C1226.6 788.2 1220.2 790.5 1212.1 790.5Z" fill="white"/>
<path opacity="0.3" d="M1163 771.2C1160.4 771.2 1157.5 769.6 1157.5 767.3C1157.5 762.2 1169.4 759.6 1172.6 759.9C1172 764.4 1167.1 771.2 1163 771.2Z" fill="white"/>
<path opacity="0.3" d="M1202.5 748.1C1200.9 748.1 1198.3 746.8 1198.3 743.9H1209.5V748.1C1208.3 748.1 1202.5 748.1 1202.5 748.1Z" fill="white"/>
<path opacity="0.3" d="M1189.6 734.9C1189.6 737.2 1187.7 739.4 1185.4 740C1185.7 743.2 1188 743.9 1188 746.4L1174.2 756.7C1168.7 756.7 1169.1 749.3 1166.2 747.7C1165.5 753.2 1160.7 758.3 1155.3 757.7C1154.6 761.2 1152.1 764.8 1148.5 764.8C1145.9 764.8 1143.7 761.3 1143 760C1139.1 761.9 1137.2 760 1134 760C1132.1 760 1131.1 762.2 1128.5 762.6C1127.9 760.4 1125.3 758.7 1125.3 757.8C1125.3 757.1 1131.1 752.7 1132.4 752C1137.5 749.4 1142.4 748.8 1147.8 745.6C1153.9 742 1155.5 733.7 1164.5 733.7C1167.1 733.7 1167.4 734 1170.3 734.4C1170.4 734.2 1189.6 729.1 1189.6 734.9Z" fill="white"/>
<path opacity="0.3" d="M1225.6 717.5C1221.8 717.5 1220.8 714.9 1217.6 714.9C1215 714.9 1213.7 717.1 1211.2 717.5C1211.2 713.3 1230.5 706.3 1234.7 706.3C1241.4 706.3 1246.9 710.2 1248.2 714.3C1245.6 715.6 1243.4 717.5 1239.5 717.5C1230.8 717.5 1232.7 717.5 1225.6 717.5Z" fill="white"/>
<path opacity="0.3" d="M1239.5 726.2C1240.1 733 1229.5 735.8 1222.4 735.8C1217.6 735.8 1212.1 730 1212.1 727.1C1212.1 719.7 1231.7 719.1 1238.5 719.1C1242 719.1 1243.3 721 1244.3 722.3C1240.8 725.2 1235.3 726.1 1230.5 726.1H1239.5V726.2Z" fill="white"/>
<path opacity="0.3" d="M1207.6 725.6C1206.3 727.5 1205.3 729.4 1203.1 729.4C1200.2 729.4 1196.7 726.2 1196.7 724.6C1196.7 716.5 1205.7 724.6 1207.6 725.6Z" fill="white"/>
<path opacity="0.3" d="M1363.9 817.2C1363.9 821.7 1362.9 818.8 1362.9 822C1364.2 822.3 1368.4 823 1370.3 823.6C1368.8 841.1 1367.7 836.4 1357.4 840.3C1354.5 841.3 1353.9 845.1 1351 845.1C1346.5 845.1 1345.9 841.6 1343.9 839.6C1334.9 830.6 1324.9 831.9 1315.6 822.6V817.1C1319.8 817.1 1324.6 821 1330.1 821C1333.3 821 1332.3 821 1334.9 821V812.3C1330.7 811.7 1324.6 812.3 1324.6 808.1C1324.6 807.1 1326.5 806.5 1326.9 805.5C1332.1 800.4 1339.1 801.6 1346.2 801.6C1352 801.6 1359.1 801.6 1359.1 801.6C1360.1 801.6 1362.3 803.2 1362.3 804.8C1362.3 811.2 1354.3 813.8 1352 816.7C1354.5 816.5 1363.9 813.6 1363.9 817.2Z" fill="white"/>
<path opacity="0.3" d="M1298.9 755.1C1297.6 753.5 1295.7 751.9 1295.7 748.7C1297 748.7 1298.3 748.7 1299.5 748.7C1308.8 748.7 1313.6 765.1 1323.6 762.2C1321 760.6 1318.5 758.3 1317.2 756.7V752.8C1324.3 752.8 1326.8 759.9 1334.9 759.9V752.8C1329.4 752.8 1324.9 752.8 1323.6 748.3C1325.8 747.3 1327.1 748 1329.4 748C1334.5 748 1337.8 751.2 1343.9 751.2C1346.5 751.2 1347.8 748.6 1350.3 748.6C1356.1 748.6 1356.7 751.8 1356.7 756.7C1356.7 764.1 1352.8 767.9 1354.1 776.9C1349.3 778.5 1342.2 778.5 1341.2 778.5C1339.3 778.5 1330.9 779.8 1330.9 776.9C1330.9 775.6 1331.9 774.3 1333.1 773.7C1332.8 772.7 1332.8 771.4 1333.1 770.5C1333.1 767.6 1339.2 767.6 1341.1 765.7C1340.1 765 1338.5 764.7 1337.3 764.7C1331.5 764.7 1320.3 767.9 1313.8 767.9C1311.5 767.9 1309.9 766 1309.9 764H1305.1L1304.1 760.8C1300.9 761.8 1298.6 759.5 1296.1 757.6V751.8L1298.9 755.1Z" fill="white"/>
<path opacity="0.3" d="M1370.3 891.7C1366.1 891.7 1342.3 883 1342.3 882.1C1342.3 879.5 1348.1 880.8 1349.4 880.5C1353.2 879.2 1352 870.2 1358.4 870.2C1363.2 870.2 1376.4 882.1 1378.3 886.6C1375.1 888.5 1373.8 891.7 1370.3 891.7Z" fill="white"/>
<path opacity="0.3" d="M1424.3 802.7C1424.3 803.4 1418.5 807.6 1418.5 807.6C1414.3 813.4 1409.8 820.4 1400.2 820.4C1393.1 820.4 1393.1 816.2 1391.2 822.6H1395.4C1394.4 828.4 1391.9 829.3 1388 833.2H1381.6C1381.6 829 1381.6 825.2 1381.9 823.6C1376.8 818.4 1379 814.6 1376.8 808.2V802.7C1379.4 802.7 1382.9 802.7 1384.2 802.7C1383.6 802.4 1384.2 800.5 1384.2 799.5C1384.2 799.2 1386.1 794.7 1392.9 794.7C1403.8 794.7 1412.8 798.6 1424.4 798.6C1424 800.1 1424.3 801.1 1424.3 802.7Z" fill="white"/>
<path opacity="0.3" d="M1296 735.2C1295.7 737.5 1293.8 739 1291.5 739C1288 739 1280.2 730.3 1280.2 726.1C1288.7 726.2 1289.3 732.9 1296 735.2Z" fill="white"/>
<path opacity="0.3" d="M1298.9 769.6C1299.5 771.2 1301.2 772.2 1301.2 774.4C1301.2 778.3 1298.3 778.6 1296.4 778.6C1293.2 778.6 1292.5 777.9 1290 778.3C1291.2 772.8 1294.4 771.2 1298.9 769.6Z" fill="white"/>
<path opacity="0.3" d="M1323.7 717.5C1317.9 717.5 1314.4 715.6 1308.6 716.2C1307 713.3 1302.8 714.9 1298 714.9C1293.5 714.9 1292.2 715.2 1289.3 712.3C1292.2 709.4 1295.1 709.7 1298.9 708.4C1298.3 707.4 1298.3 705.5 1298.9 704.5C1291.8 704.5 1290.2 706.4 1287.7 704.5C1288.7 703.9 1289.6 702.6 1289.9 701.3C1285.4 701.3 1284.4 700.3 1284.4 696.5C1288.3 695.9 1290.8 693.9 1294.7 693.9C1301.5 693.9 1303.1 699.7 1306.9 699.7C1309.5 699.7 1310.8 697.1 1313.3 697.1C1319.7 697.1 1319.4 704.5 1323 704.5C1324.9 704.5 1325.9 701.9 1327.8 701.9C1332.3 701.9 1335.8 707.7 1337.5 709.3C1336.9 710.3 1335.6 711.6 1334.9 712.5C1337.5 715.1 1343.9 717.6 1343.9 721.2C1343.9 724.4 1340.7 725.4 1338.1 725.4C1330.4 725.6 1331.1 717.5 1323.7 717.5Z" fill="white"/>
<path opacity="0.3" d="M1313.7 726.2C1307.9 726.2 1315.3 721.4 1316.6 721.4C1320.1 721.4 1321.1 723 1324 724C1322.4 726.2 1318.5 726.2 1313.7 726.2Z" fill="white"/>
<path opacity="0.3" d="M1523 772.8C1521.7 773.8 1520.4 775 1519.8 777.3C1522.1 777.9 1524 777.6 1524 777.6C1523 788.9 1508.6 788.9 1497.3 788.9C1493.1 788.9 1491.5 786.3 1490.9 784.1C1486.4 784.7 1485.8 786.3 1482.9 788.3H1457.2C1450.4 789.9 1440.5 788.9 1441.1 783.5H1437.2C1435.9 785.1 1431.1 789 1428.2 789C1421.1 789 1405.1 781 1405.1 774.5C1405.1 772.3 1407.7 770 1408.9 769.4C1403.1 763.6 1401.5 758.5 1396 753C1394.1 754.9 1392.1 756.2 1389.6 756.2C1386.1 756.2 1366.5 747.8 1366.5 744.9C1366.5 740.1 1372.3 740.1 1376.1 740.1C1390.6 740.1 1393.1 751.3 1404.1 751.3C1407.3 751.3 1409.2 750.7 1410.5 748.7C1412.7 748.7 1416.3 748.7 1416.3 748.7C1413.7 756.1 1428.5 754.2 1431.4 758.4H1418.5C1420.4 767.1 1428.5 762.3 1433 765.8C1432.4 766.4 1430.8 766.4 1430.8 767.4C1430.8 771.9 1434.7 770 1435.9 769C1443.6 770.9 1450 772.8 1458.1 772.8C1475.8 772.8 1481.6 764.8 1498.3 764.8C1511.1 764.8 1519.5 765.4 1524 773.8C1523.4 774.1 1521.8 774.4 1520.8 774.4L1523 772.8Z" fill="white"/>
<path opacity="0.3" d="M1372.9 773.8C1376.4 773.8 1375.1 766.4 1382.5 766.4C1388.3 766.4 1396 772.8 1396 777C1396 782.5 1394.1 787.3 1389.6 787.3C1387.4 787.3 1368.7 778.6 1368.7 778.6C1368.7 775.4 1372.2 773.8 1372.9 773.8Z" fill="white"/>
<path opacity="0.3" d="M1392.8 726.2C1396.3 726.2 1393.8 726.9 1397 726.2C1397 728.5 1397 729.7 1397 730.4C1397 732 1395.1 733.6 1392.2 733.6C1390.6 733.6 1372 730.1 1372 730.1C1375.1 726.8 1386.7 726.2 1392.8 726.2Z" fill="white"/>
<path opacity="0.3" d="M1360 722.3C1360 720.7 1362.3 719.4 1363.2 719.1C1359.3 715.2 1352.6 713.3 1352.6 706.9C1352.6 703.7 1356.8 702.4 1360 702.1C1361 704.7 1367.7 706.9 1371.3 706.9C1371.3 714.6 1382.5 707.5 1382.5 714.3C1382.5 716.6 1381.5 718.8 1382.5 722.3C1371.3 724.9 1360 726.2 1360 722.3Z" fill="white"/>
<path opacity="0.3" d="M1352.6 680.6V687H1347.1C1345.2 685.1 1341.3 684.4 1341.3 680.6C1345.5 680.2 1350.4 680.6 1352.6 680.6Z" fill="white"/>
<path opacity="0.3" d="M1440.3 678.9H1444.2V674.7L1442.6 672.4C1443.6 672.4 1444.8 672.4 1445.8 672.4C1450.3 672.4 1450 674 1450 677.9C1450 680.2 1453.9 680.5 1453.9 682.7C1453.9 684.9 1451.6 685.6 1451.6 687.5C1451.6 690.4 1456.4 687.5 1457.1 687.5C1460.3 687.5 1468.7 691.4 1472.9 691.7C1472.9 694 1473.6 695.2 1472.6 696.5C1471.3 698.4 1467.8 697.8 1465.2 698.1C1458.8 698.7 1454.3 708.4 1450.1 708.4C1445.9 708.4 1445.9 705.5 1445 702C1443.4 703.6 1442.8 705.2 1441.1 706.8C1443 710 1444.3 710.7 1445.3 713.2H1439.5V717.4C1436.6 717.7 1430.8 713.5 1427.9 711.6C1427.9 717.4 1425 719 1420.2 719C1415.1 719 1408 717.7 1407.3 713.2C1409.5 712.9 1410.5 711.9 1411.5 711C1406 711 1397 707.8 1397 703C1397 696.9 1416.9 697.5 1421.4 696.6C1416.6 695.3 1413 694 1408.2 694C1403.4 694 1402.4 696.6 1398.6 696.6C1395.4 696.6 1395.1 694.3 1394.1 692.4C1390.9 693.7 1389.9 695 1387.4 695C1385.1 695 1384.8 693.7 1384.8 691.8C1388 690.5 1390.3 690.2 1392.2 687.6C1381.3 687.6 1374.5 686.6 1373.6 677.3H1378.4C1380 678.6 1385.2 680.5 1388 680.5C1389.3 680.5 1390.9 677.9 1390.9 677.9C1386.7 676.6 1376.8 674.4 1376.8 670.8C1376.8 667.3 1381.3 667.6 1384.2 667.6C1388.7 667.6 1390.3 669.8 1392.9 669.8C1394.8 669.8 1395.5 667.6 1396.4 666.6C1393.2 664.7 1389.3 666.6 1387.4 666.6C1386.1 666.6 1383.2 661.8 1383.2 661.5C1387.1 659.3 1389.6 657.3 1395.4 658.6H1400.9C1397 656.7 1391.6 656.3 1391.3 651.9C1399.3 652.5 1405.8 653.2 1411.6 655.4C1418 658 1416.7 667.3 1421.9 669.2C1426.7 671.1 1429.9 667.9 1434.8 669.8C1439.4 671.9 1437.5 676 1440.3 678.9Z" fill="white"/>
<path opacity="0.3" d="M1458.7 960.2C1460.3 958.9 1461.9 957.9 1461.9 956C1461.9 953.1 1461.9 954.1 1461.9 951.2C1461.9 945.7 1463.5 932.9 1472.5 931.9C1474.1 936.7 1475.7 937.7 1477.3 940.9C1478.3 939.6 1479.2 938.9 1480.2 938.3C1487 946.7 1497.2 943.4 1503 951.2C1504.6 953.5 1503.6 955.7 1505.3 957C1510.4 960.9 1516.2 959.2 1519.1 963.1C1515.6 965.3 1512.7 966.6 1508.5 966.6C1504.6 966.6 1503 966.6 1499.8 966.6C1499.8 966.6 1489.5 959.2 1487.6 958.5C1487.6 965.6 1477 972.3 1472.5 970.4C1471.5 972 1471.5 973 1469.9 973C1466 973 1467 969.8 1467.7 966.6C1462.6 965.3 1456.4 966.3 1453.9 966.6C1454.2 961.2 1458 961.8 1458.7 960.2Z" fill="white"/>
<path opacity="0.3" d="M1566.3 904C1566.3 908.2 1558.3 911.1 1554.4 911.1C1549.6 911.1 1546.4 907.9 1546.4 904C1546.4 891.1 1566.3 893.4 1566.3 904Z" fill="white"/>
<path opacity="0.3" d="M1494 975.3C1500.4 975 1499.1 975 1503 976.6C1500.1 980.5 1492.1 986.9 1486.9 987.5V983.3C1489.5 980.1 1493.7 977.2 1494 975.3Z" fill="white"/>
<path opacity="0.3" d="M1528.7 820.4C1522.3 820.4 1516.8 818.8 1519.1 813.3C1516.2 811.7 1512.7 810.1 1512.7 806.5C1512.7 803.3 1515.6 801.7 1518.2 801.7C1525.3 801.7 1527.5 804.3 1534.3 804.3C1543 804.3 1550.4 811.4 1556.1 814.3C1555.1 817.2 1553.2 819.4 1550.3 819.4C1546.1 819.4 1544.2 817.2 1540.7 817.2C1537.1 817.2 1534.2 820.4 1528.7 820.4Z" fill="white"/>
<path opacity="0.3" d="M1527.1 986.9C1525.2 989.5 1524.5 994 1521.3 994C1520.7 994 1516.5 989.2 1516.5 989.2C1516.5 983.3 1523.9 983 1527.1 986.9Z" fill="white"/>
<path opacity="0.3" d="M1573.8 902.3C1571.5 902.3 1569.6 901.7 1569.6 899.7C1569.6 898.7 1573.1 896.5 1573.8 896.5C1576.7 896.5 1579.3 900.4 1580.2 901.6C1576 902.7 1577 902.3 1573.8 902.3Z" fill="white"/>
<path opacity="0.3" d="M1527.8 885.3C1523.9 885.3 1531.3 877.9 1535.2 877.9C1534.2 881.8 1531.6 885.3 1527.8 885.3Z" fill="white"/>
<path opacity="0.3" d="M1675 935.1C1675 938.6 1674.4 944.1 1670.8 944.1C1654.7 944.1 1654.1 922.2 1638.7 922.2C1636.8 922.2 1632.6 925.7 1632.3 925.7C1635.2 927.3 1635.8 927 1638.7 926.3V930.2C1636.8 930.9 1635.2 931.2 1633.9 930.2V935H1638.1C1638.7 939.2 1642.6 946.2 1645.2 947.2C1651.3 949.4 1653.5 945.6 1654.2 951C1657.4 951 1657.4 951 1659.7 951C1659.4 956.2 1659.4 956.2 1659.7 957.4C1659.7 959.7 1665.5 961.2 1665.5 964.8C1665.5 968 1662 974.1 1660.7 977.7C1654.9 977 1634.3 969.3 1630.8 964.8H1626C1631.5 971.6 1649.5 978.3 1649.5 987.3C1649.5 989.6 1647.6 991.2 1646.3 991.2C1644.7 991.2 1644 987.7 1643.1 987.3C1633.8 982.8 1627.7 984.7 1619.6 979.9C1611.9 975.4 1592.6 975.7 1598.1 965.5C1587.5 961 1582.3 954.9 1573 949.4C1571.4 951.6 1569.5 954.2 1566.6 954.2C1563.4 954.2 1564 951.9 1561.1 951.9C1557.2 951.9 1555.3 956.7 1551.5 956.7C1548 956.7 1537.7 952.2 1537.7 947.7C1537.7 944.5 1546.1 939 1550.5 939C1556.3 939 1561.4 939 1564.3 939C1567.2 939 1574.9 937.1 1578.8 934.5C1577.2 933.5 1573 930.3 1573 927.8C1573 922.3 1578.8 925.2 1581 923C1583.9 920.1 1590.6 913 1590.6 908.6C1590.6 900.3 1570 884.5 1563.3 884.5C1559.1 884.5 1557.2 888.3 1553 888.3C1551.7 888.3 1550.4 885.1 1550.4 884.5C1550.4 881.3 1556.2 880.6 1558.1 880.3C1555.2 877.4 1537.8 862.6 1534.3 862.6C1530.1 862.6 1525 874.8 1519.2 874.8C1515 874.8 1516.3 869.6 1516.6 867.4C1506.6 866.4 1482.2 867.4 1467.7 867.4C1465.1 867.4 1460 863.5 1458.1 861H1442.7C1441.1 856.5 1436.3 855.9 1435.6 851.4C1439.8 849.8 1444.6 851.7 1450.1 852.4V848.2C1447.2 846.3 1432.4 845 1432.4 845C1432.4 845 1427.6 839.2 1427.6 836.3C1427.6 827.3 1429.2 825.4 1434 821.8C1436.6 819.9 1435 814.1 1436.3 812.8C1442.7 806.4 1451.1 800.9 1462 800.9C1462 800.9 1472.3 804.1 1472.6 804.1C1469.4 810.8 1458.8 811.5 1458.8 820.8C1458.8 822.7 1459.8 824 1461.4 824C1460.8 826.3 1461.4 829.8 1461.4 829.8C1461.4 832.4 1460.8 835.3 1464.6 835.3C1466.5 835.3 1471 831.4 1471 828.9C1471 825.7 1467.8 823.4 1467.8 820.2C1467.8 808 1489.3 804.1 1502.2 804.1C1510.6 804.1 1515 815.3 1515 822.4C1515 823.7 1513.4 828.8 1515 828.8C1516.9 828.8 1518.2 825.6 1521.4 825.6C1524.9 825.6 1525.9 828.8 1528.8 828.8C1534.3 828.8 1535.9 820.8 1541.6 820.8C1547.7 820.8 1561.5 822.7 1565.7 825.6C1572.8 830.7 1575 841.7 1585.6 841.7C1590.4 841.7 1591.4 841.7 1593.6 841.7C1597.1 841.7 1605.2 842.7 1604.2 848.1C1612.9 851 1617.7 856.1 1626.7 857.1V862.6C1628.6 862.6 1632.2 862.6 1632.2 862.6C1636.7 862.6 1639.3 865.8 1641.2 870.3C1636.7 871.3 1632.5 870.9 1629.9 874.8C1635.4 875.4 1636.7 875.4 1639.6 875.4C1641.2 875.4 1643.5 876.4 1644.4 878.3C1639.3 880.9 1636.7 880.9 1633.8 885.7C1636.7 887.3 1638.6 888.3 1642.8 888.3C1643.4 895.7 1652.1 898.9 1658.9 899.6C1659.5 905.4 1661.1 910.8 1666 910.8C1673.1 910.8 1674.7 906.3 1677.2 912.4C1678.8 914 1681.4 914 1683 914C1689.1 914 1691.7 916.3 1691.7 921.4C1691.7 925.6 1686.2 926.8 1682.1 926.8C1682.4 930.4 1682.1 929.4 1682.1 931C1682.1 932.2 1681.1 935.1 1675 935.1Z" fill="white"/>
<path opacity="0.3" d="M1543.2 969.5C1540 972.1 1539 972.1 1535.8 969.5C1539 965.3 1539.4 967.6 1543.2 969.5Z" fill="white"/>
<path opacity="0.3" d="M1482.1 930.3C1486.3 928.4 1486.3 932.6 1488.5 935.4C1484.4 935.1 1481.8 932.5 1482.1 930.3Z" fill="white"/>
<path opacity="0.3" d="M1641.3 617.6C1639 619.9 1638.1 620.5 1635.5 621.1L1661.2 613.7C1663.5 615 1664.7 615.6 1667 616.3C1670.5 617.2 1670.5 619.8 1672.5 621.7C1676.3 625.6 1693.4 624 1693.4 629.8C1693.4 634 1687.6 633 1685.4 634.6C1672.5 644.2 1656.8 638.5 1639.8 646.8C1643 650 1655.9 647.4 1663.9 647.8C1656.5 655.2 1638.5 659.7 1626.9 663.5C1614 667.7 1606.7 680.5 1597 687.6C1592.5 690.8 1585.4 687 1580.3 688.6C1573.2 690.8 1565.2 691.5 1560 695.7H1569C1569.6 702.8 1565.8 702.1 1559.7 701.5C1563.6 703.4 1567.1 704.7 1569 709.2C1562.2 712.4 1560 720.1 1554.5 724C1540.7 724 1541 724 1538.4 724C1539 726.2 1540.7 726.9 1540.7 728.8C1540.7 739.1 1527.2 733 1527.2 743.9C1532 743.9 1533 743.9 1535.2 743.9C1536.2 743.9 1540 743.6 1540 746.5C1540 752 1521.7 757.8 1514.3 757.8C1506.9 757.8 1510.1 753 1503.7 753C1494.4 753 1487.6 753 1479.6 753C1476.7 753 1474.8 756.2 1470 756.2C1459.4 756.2 1450.7 753.3 1439.5 749.8C1438.5 751.4 1437.2 753 1435.6 753C1433.3 753 1432.4 751.4 1432.4 750.4C1432.4 737.5 1449.1 742.3 1455.9 737.5C1452 734.6 1445.3 733.6 1445.3 727.8C1445.3 723.3 1450.1 724.6 1453.3 724.6C1463.6 724.6 1467.1 730.1 1473.2 733.6H1479C1474.5 729.1 1464.5 725.2 1464.5 717.5H1459.7C1457.8 718.5 1457.8 718.5 1456.5 719.7H1451.7V715.9C1454.3 710.4 1456.5 706.9 1461.4 705.3C1469.4 702.7 1479.1 705.6 1479.1 696.6C1479.1 686.3 1457.2 686.3 1457.2 680.5C1457.2 677.3 1462 677.9 1465.2 677.9C1461.7 677.9 1461 676.6 1460.4 674C1462 673.3 1463.6 674 1465.2 674C1468.7 674 1475.8 672.7 1482.2 674.6C1490.2 677.2 1493.1 686.5 1502.1 685.5C1500.5 683.9 1490.2 677.5 1490.2 675.5C1490.2 674.2 1491.8 673.2 1492.5 672.3H1508.6C1514.7 669.7 1520.2 668.1 1524 663.3H1519.2C1512.8 668.4 1505.4 670.7 1495.1 670.7C1489 670.7 1487.1 668.1 1483.8 668.1C1481.2 668.1 1480 671.3 1477.4 671.3C1471 671.3 1462.6 669 1464.6 664.9H1460.4C1458.2 666.5 1456.2 668.1 1453.3 668.1C1446.9 668.1 1437.9 664.3 1435.6 661.3C1437.9 659.7 1440.1 658.1 1444.3 657.8C1438.2 657.8 1431.8 657.5 1429.2 657.8C1432.7 649.4 1440.8 650.4 1449.1 647.8C1446.2 647.2 1445.2 647.2 1442.7 647.2C1436.3 647.2 1435.9 653 1429.8 653C1428.2 653 1424.6 650.8 1424 650.4C1427.2 647.2 1429.1 646.2 1433 644.9H1423.4C1421.5 645.5 1419.5 646.5 1418.6 647.1C1417.3 647.1 1413.5 647.1 1411.5 647.1C1413.4 639.1 1434.3 635.2 1443.7 635.2C1447.5 635.2 1450.1 635.2 1450.8 635.2C1452.1 635.2 1453.4 633.9 1453.4 632.6C1463.7 632.6 1459.5 625.5 1466.3 625.5C1472.4 625.5 1485 631.6 1487.8 632.6C1490.7 624.9 1494.5 618.1 1503.9 618.1C1509.4 618.1 1506.1 621 1510.3 617.5C1511.9 614.3 1514.5 613.3 1517.7 613.3C1534.4 613.3 1538 613.3 1554.7 613.3C1555.3 612 1556.9 611 1558.5 611C1564.3 611 1565.9 614.9 1570.7 614.9C1575.2 614.9 1576.5 609.4 1581 609.4C1585.8 609.4 1587.7 611.6 1590.6 611.6C1594.5 611.6 1596.4 611.6 1599.6 611.6C1607.2 612.1 1634.8 611.1 1641.3 617.6Z" fill="white"/>
<path opacity="0.3" d="M1773.7 889.5C1778.2 887.2 1778.2 886.9 1782.7 888.8C1784.6 879.2 1789.4 875.9 1792.3 866.9C1782.3 863.7 1758.9 862.1 1757.6 853.1C1760.8 851.8 1760.5 853.1 1763.4 853.1C1770.1 853.1 1775 857.9 1782.7 857.9C1785.9 857.9 1785.6 855 1785.9 853.1C1775.9 849.9 1773.1 834.8 1762.4 834.8C1759.5 834.8 1758.5 840.3 1754.4 840.3C1748.6 840.3 1745.7 839.7 1745.7 834.8C1745.7 827.7 1752.8 828.4 1752.8 821C1752.8 816.2 1747.7 815.9 1744.8 815.5V810.7C1735.8 783 1713.3 755.1 1677.3 755.1C1671.8 755.1 1670.6 755.1 1667.7 755.1C1663.5 755.1 1661.6 759.3 1657.4 759.3C1654.5 759.3 1651.6 756.7 1647.8 756.7C1644.3 756.7 1643 757.3 1641.4 758C1642.4 759 1643.6 760.3 1644.6 760.6C1642.7 762.5 1643 761.6 1640.4 761.6C1633.6 761.6 1623.3 758.7 1619.5 753.9C1622.4 752 1624.6 751.6 1625.9 748.8C1620.8 746.9 1616.9 743.4 1613 743.4C1605.9 743.4 1607.9 745.7 1601.8 743.4C1602.5 738.9 1608.9 737 1611.5 737C1615 737 1617.3 737 1619.5 737C1622.7 737 1623.7 736.7 1625.3 734.4H1643.6C1646.8 732.1 1646.8 730.9 1647.8 727.3H1635C1634.3 728.9 1633.4 730.5 1631.8 730.5C1626.7 730.5 1624.7 730.5 1620.5 730.5C1619.2 730.5 1588.4 721.8 1588.4 716.7C1588.4 706.7 1599.7 710.3 1606.7 708C1612.5 706.1 1616 702.5 1622.1 700.6C1630.8 697.7 1642.3 702.5 1649.4 698.4C1654.5 695.2 1658.1 689.4 1658.1 681.4C1652.3 680.8 1634 681.1 1634 675C1634 672.1 1638.8 670.5 1640.4 670.2C1651.3 666.7 1665.8 659 1672.2 652.5C1674.8 654.4 1677.3 655.1 1680.6 655.1C1691.9 655.1 1683.2 640.3 1693.5 639C1706.4 637.4 1711.2 634.2 1723.4 634.2C1732.4 632 1738.8 626.8 1747.5 626.8C1753.3 626.8 1754.9 636.4 1761 636.4C1761 634.1 1759.4 632.2 1759.4 630L1762.6 626.8C1766.1 632.9 1771.6 632.3 1778 634.8C1779.6 634.8 1782.8 634.8 1782.8 634.8C1781.8 632.2 1780.2 630.3 1780.2 627.7C1780.2 623.9 1785 623.5 1788.2 623.5C1801.4 623.5 1809.1 630.9 1817.1 634.7H1831.6C1826.5 632.1 1813.3 627.9 1813.3 621.8C1813.3 617 1823.3 618.6 1826.1 618C1823.9 615.7 1821.3 615.4 1819.7 613.2C1828.4 609 1836.4 606.8 1847 606.8C1854.7 606.8 1859.8 606.5 1866.9 609H1873.3V605C1878.1 604.4 1881.3 605 1886.1 605C1901.5 605 1914.1 596 1930.5 596C1948.5 596 1961 596 1977.1 596C1996.1 596 2010.2 608.2 2025.3 614.7C2034 618.2 2045.2 616 2053.3 617.9C2051.7 629.2 2029.8 627.5 2021.1 630.8L1950.5 634.7C1956 638.9 2009.9 632.5 2015.6 634.7C2015 637.3 2000.9 650.8 2003.5 650.8C2011.5 650.8 2030.7 632.5 2041.3 632.5C2047.1 632.5 2049.3 637.3 2049.3 642.1C2049.3 645 2028.5 666.8 2027.6 670.1C2035.9 667.9 2052.2 646.6 2057.4 642.8C2065.8 642.8 2078.9 642.8 2078.9 642.8C2078.9 642.8 2085 644.1 2086.3 643.8C2092.1 641.5 2093.1 639.9 2098.2 637.4H2113.6C2114.6 633.5 2116.8 633.2 2120 633.2C2124.2 633.2 2139.3 640.3 2139.3 644.5C2139.3 648.4 2133.2 651.3 2131.3 651.9C2120.7 655.4 2113.9 664.8 2099.5 664.8C2103.4 666.7 2103.7 666.7 2106.3 664.8C2106.3 673.8 2097.6 673.8 2091.8 675.1C2094 679.6 2091.8 676.1 2091.8 679.3C2091.8 684.5 2083.4 685.7 2077.3 687.4C2077.6 690.9 2077.3 690.9 2077.3 692.2C2077.3 699 2070.5 701.2 2064.5 705.7C2060.6 708.6 2061 716.3 2059 719.5C2062.5 721.1 2065.1 719.5 2068.6 719.5C2073.7 719.5 2078.2 723 2081.5 725.6C2079.9 726.6 2077.6 727.5 2075.7 727.5C2077 732.6 2089.5 731 2089.5 738.7C2089.5 746.4 2072.8 743.5 2067 743.5C2063.5 743.5 2060.6 746.1 2060.6 748.3C2060.6 753.8 2066.4 753.8 2070.9 753.8C2070.9 760.9 2075.7 762.8 2075.7 767.6C2075.7 770.2 2074.1 772.8 2075.7 774.7C2070.6 774.7 2065.4 774.7 2065.4 778.9C2065.4 784.4 2074.4 784 2078.3 785.3C2076.4 790.4 2069.9 793.3 2063.8 794C2063.8 796.2 2065.4 798.2 2067 798.8C2064.8 808.4 2051.9 804.3 2049.3 811C2045.8 808.7 2042.2 807.1 2039.7 803.6H2034.9C2038.1 812.3 2052.6 809.4 2052.6 818.1C2052.6 821.9 2051.6 827.1 2047.8 827.1C2042 827.1 2032 818.7 2030.1 812.6C2027.5 812.9 2026.6 812.6 2025.9 812.6V817.4C2037.5 829 2058 834.4 2058 852.7C2058 856.2 2052.8 856.5 2049.3 856.5C2034.2 856.5 2037.4 840.4 2024.2 840.4C2022.6 840.4 2021 841.4 2019.4 840.4C2019.4 844.9 2022.6 845.9 2022.6 848.5C2022.6 851.4 2017.1 852.3 2015.5 852.7C2015.5 862.3 2044.1 861 2050.9 863.3C2046.1 867.2 2042.9 867.5 2037.1 869.4C2026.5 872.9 2023.3 881.9 2014 884.8C2002.4 888.6 1993.1 887.7 1980.9 892.8H1965.8C1962.6 894.7 1959.4 895.7 1959.4 898.2L1951.4 904C1945.3 908.8 1945 915.2 1940.2 920.1C1933.8 926.5 1922.8 924.9 1916.1 929.7H1911.3V923.3C1906.5 925.2 1907.7 928.5 1904.9 931.4C1898.1 938.1 1880.8 935.2 1880.8 945.9C1880.8 946.9 1881.4 948.2 1881.4 949.1C1880.4 950.4 1879.1 951.4 1879.1 953C1879.1 955.2 1882.9 956.9 1882.9 960.4C1882.9 971.3 1867.8 967.8 1867.8 977.1C1867.8 982.9 1867.2 991.2 1867.8 994.8C1860.4 998.3 1864.3 1015 1855.6 1015C1853.3 1015 1852.4 1013.7 1851.7 1011.8C1847.8 1012.1 1847.2 1014.1 1845.3 1014.1C1837.3 1014.1 1837.9 999.6 1829.9 999.6C1825.4 999.6 1820.3 1003.5 1816.4 1003.8C1814.1 996.4 1810.9 998.7 1805.8 994.8C1803.9 993.5 1804.5 989 1803.6 988.4C1797.2 983.2 1785 968.8 1785 959.5C1785 955.3 1787.6 955.7 1789.8 953.4C1785 947.3 1783.4 955.3 1777.9 952.4C1776.6 951.1 1775.6 945 1774.7 941.8C1772.8 935.7 1764.1 932.2 1764.1 923.5C1764.1 920.3 1766.4 918.7 1767.3 915.5C1765.1 914.2 1762.8 913.9 1760.9 915.5V908.1C1765.4 902 1767.3 895.6 1773.8 890.4V889.5H1773.7Z" fill="white"/>
<path opacity="0.3" d="M1758.6 877.3C1755.7 877 1752.2 869.9 1752.2 866C1752.2 861.2 1756.4 859.6 1759.3 859.6C1767.7 859.6 1770.2 868.3 1778.6 870.9C1778 876.4 1771.2 877.3 1765.8 877.3H1758.6Z" fill="white"/>
<path opacity="0.3" d="M730 1017.1C731.3 1014.2 732.3 1014.8 734.8 1014.8C738.7 1014.8 739 1017.1 739.6 1020.3H729C727.7 1019.3 725.8 1018.3 725.1 1017.1H730Z" fill="white"/>
</g>
</g>
<g opacity="0.2">
<path opacity="0.3" d="M-170.4 135.3L-178.3 116.3C-178.3 113.8 -175.8 113.8 -175.4 112.4C-172.9 104.5 -171.8 100.6 -169.7 93.4C-167.5 86.2 -160.4 84.4 -160.4 76.2C-160.4 70.1 -162.2 65.1 -162.2 60.8C-162.2 58.6 -160.4 57.9 -159.7 57.2V53.6C-162.6 54.7 -163.6 56.8 -166.5 56.8C-170.1 56.8 -172.2 55.4 -173.7 53.9C-179.4 58.2 -181.2 62.8 -191.6 62.8C-199.1 62.8 -202 53.9 -209.5 53.9C-217 53.9 -215.6 62.1 -222 62.1C-228.8 62.1 -232.4 52.4 -239.2 55.6H-243.1C-242 55.2 -240.6 54.2 -240.2 53.5C-242.4 51.3 -252.8 46 -249.2 42.4C-252.4 37.7 -256.4 38.1 -261.4 35.6C-257.8 32 -253.9 32.7 -253.9 25.9C-253.9 23.4 -254.6 23.4 -253.9 21.6C-256.4 21.6 -260 22 -260 19.8C-260 8.69999 -234.2 10.9 -227.7 7.59998C-228.4 4.69998 -230.6 5.79999 -230.6 3.29999C-230.6 0.0999877 -223.8 1.5 -222 1.5C-217.7 1.5 -210.9 1.5 -210.9 1.5C-206.6 1.5 -200.1 -3.10001 -196.2 -5.70001C-191.5 -8.60001 -181.5 -8.90002 -175.4 -8.90002C-165.7 -8.90002 -166.1 -3.5 -157.8 -3.5C-157.8 0.8 -143.8 3.29995 -139.9 3.69995C-129.5 3.69995 -123 3.69995 -119.5 3.69995C-109.8 3.69995 -105.5 -6 -94.7 -6C-82.9 -6 -83.6 0.799988 -80 8.29999C-79.3 9.69999 -72.1 14 -71.4 14C-64.9 16.2 -63.5 26.9 -53.5 26.9C-45.6 26.9 -46 20.4 -40.6 18.7C-37.7 17.6 -38.1 18 -35.6 17.6C-34.5 19.7 -34.5 22.6 -33.1 24.1C-33.5 24.8 -33.1 25.5 -33.1 26.3C-33.1 29.9 -30.2 29.5 -28.4 32.4C-25.5 36.7 -28.8 39.6 -26.6 43.9C-24.8 47.8 -20.1 45.7 -16.2 46.4C-13 47.1 -12.2 50.7 -10.1 52.8C-7.20001 55.7 1.69999 55 6.39999 55C12.5 55 19 53.9 23.2 52.8C23.2 49.6 23.2 49.2 23.2 46.4C23.2 43.2 27.5 43.2 30.7 42.1C35 40.7 33.9 39.2 37.5 37.8C44.3 35.3 48.3 36.9 53.7 32.9C61.8 37.4 66.2 37.8 73.7 40.3C82.3 43.2 85.2 51.1 95.6 51.1C96 53.2 98.1 54 98.5 55.4C100.3 60.8 98.1 66.1 100.3 69.4C97.8 70.8 92.1 83.7 92.1 84.5C92.1 85.6 93.2 87.4 92.1 88.1C93.2 89.9 92.8 90.6 93.5 92.4V103.5C94.9 106.7 93.9 108.9 95.3 112.1C96.7 115.3 103.9 112.1 103.9 118.2C103.9 125.8 96 124.3 96 130.8C96 135.1 99.2 135.1 100.3 137.3C106 149.2 118.6 150.9 118.6 166.4C109.3 168.5 103.2 170.3 103.2 180.4C103.2 182.9 104.6 184.7 104.6 186.5C104.6 186.9 103.2 186.5 102.8 186.5C96 186.5 80.2 182.2 70.5 182.2C68.7 182.2 58.3 179.3 57.9 179C54.3 175.4 54.3 164.7 46.8 164.7C42.8 164.7 41.4 168 39.3 170.1H21.4C15.7 168.3 12.8 163.6 9.19998 160.1C4.89998 155.8 -0.800018 157.9 -4.80002 154C-6.90002 151.9 -5.90001 149 -6.60001 147.5C-10.5 139.6 -18.4 128.5 -28.5 128.5C-33.5 128.5 -35.7 134.9 -35.7 140C-35.7 143.6 -35.7 145.4 -35 148.2C-32.9 156.8 -22.8 172.2 -14.5 174C-14.5 177.9 -12.4 179 -12 182.2C-7.70003 181.1 -8.40002 176.5 -4.80002 175.7C-4.40002 177.1 -4.40002 178.2 -4.40002 179.6C-4.40002 183.9 -6.90002 186.8 -6.90002 191.1C-6.90002 196.1 2.39999 198.6 7.79999 198.6C31.8 198.6 33.6 183.9 46.5 174.2V187.5C51.5 197.9 58.3 199.7 68.7 202.9C72.7 204 73 210.1 75.5 211.5V211.2C77.3 214.4 82.3 213.7 82.3 216.9C82.3 225.1 71.9 228 71.9 236.6C66.5 236.6 62.9 238 61.5 242.4C60.1 246.7 60.4 252.8 56.1 252.8C50.7 252.8 51.1 263.2 45.7 263.2C42.5 263.2 35.7 269.3 35.7 273.6C26 275.4 4.09998 279.3 4.09998 287.2C4.09998 288.3 4.79997 289.7 5.49997 290.4C-2.70003 294.3 -13.8 296.8 -22.5 299C-26.8 300.1 -41.1 310.1 -45.8 312.3H-56.9C-63 316.6 -64 319.5 -71.5 319.5L-73.7 320.8C-74.8 320.8 -83.9 316.4 -84.9 315.9C-85.8 315.5 -83 315.4 -85.3 311.9C-89 306.3 -91.6 300.4 -91.6 293.6C-95.5 293.2 -92.8 286.4 -92 283.2C-90.2 275.3 -96.2 272.1 -100.2 268.1C-104.5 263.8 -114.4 251.4 -114.4 242.8C-126.9 240 -129.9 232.6 -129.9 219C-129.9 210.8 -134.6 209 -136 202.1C-137.8 200.7 -139.6 198.5 -140.7 197.4C-142.1 196 -146.8 196.7 -147.9 195.6C-150.1 193.4 -149.3 188.1 -150.1 185.9C-151.2 182.3 -153.7 179.4 -155.1 177.3C-159.4 170.9 -163 165.5 -166.9 159.4C-168 157.6 -173 151.9 -173 150.8C-173 147.2 -170.5 139 -170.5 133.6V135.3H-170.4Z" fill="white"/>
<path opacity="0.3" d="M305.8 373.7C305.8 380.2 301.2 388.4 294.3 388.4C289.3 388.4 285.3 383.4 285.3 378.3C285.3 367.9 290.3 360 290.3 349.3C295.4 358 305.8 362.3 305.8 373.7Z" fill="white"/>
<path opacity="0.3" d="M213.7 248.2L212 246.7C212 247.8 212.6 250.7 212.6 251.8C212.6 258.6 216.6 265.4 218.7 272.6C221.2 280.5 227.7 292.3 229.5 297.7C230.9 302.3 230.9 304.5 233.8 309.2C236.7 313.5 234.9 318.1 237.7 323.9C239.1 326.8 244.2 330.4 245.6 335.4C248.1 342.9 252 350.1 254.9 358.7C255.3 359.8 256.3 362.3 258.1 362.3C258.5 364.8 260.6 366.2 263.5 365.9C266.4 365.9 266.7 361.6 268.2 358.7C270 355.1 270.7 356.5 275 354.4C277.9 353 276.8 343.6 281.8 342.2C282.9 341.8 285.4 341.8 285.4 340.8L287.2 340.4L285.4 331.1C285.4 324.3 289.7 318.6 289.7 309.6C289.7 303.9 287.2 300.3 287.2 293.8C287.2 286.3 294.7 285.2 301.2 283C303.7 282.3 307.7 278 310.5 275.1C317.3 268.3 323.8 261.1 330.9 254C336.6 248.3 347 246.5 353.5 240C356.7 236.8 356.4 232.8 357.8 227.8C358.9 224.6 366.4 224.2 368.9 218.8C371.8 220.6 371.8 222.4 377.5 222.4C386.8 222.4 396.8 220.2 396.8 209.5C402.2 210.6 408.3 212.7 409.7 217.8C411.2 222.1 410.4 227.8 413.3 232.1C416.2 236.8 420.1 239.6 425.1 243.6C428.7 249.3 433 255.1 435.5 262.6C435.9 264.4 437.7 265.5 437.7 267.3C437.7 271.2 435.9 273.4 435.9 278.1C435.9 282.7 436.3 287.1 441.6 287.1C451.6 287.1 454.2 276.7 460.3 270.6C462.5 272.7 461.4 274.2 463.5 276.3C464.2 277 467.1 276.3 468.2 278.1C471.8 283.5 465.7 294.2 470.3 294.2C470.3 305.7 479.6 315 479.6 330.8C479.6 334.7 476.7 343 479.6 344.4C482.5 338.3 483.5 334.3 486.8 327.5C487.2 326.4 489.7 325.3 489.7 323.6C489.7 320.7 484.7 303.9 482.2 301.4C479.7 298.9 475.7 297.1 475.7 293.1C475.7 292 476 291 476 289.9V290.3C476.7 289.6 479.6 285.6 479.6 282.8C479.6 278.5 479.3 271 476.7 267C474.6 263.8 469.9 263.8 469.9 257.3C469.9 250.8 472.1 245.8 475.7 242.2C477.5 240.4 481.8 241.1 484.6 239.3C493.2 233.6 498.6 230.7 505.8 219.9C503.7 219.9 502.6 220.6 500.1 220.6C492.9 220.6 488.6 212.7 488.6 205.5C484.7 204.8 483.9 194.8 481.1 194.8C478.2 194.8 476.4 196.6 473.6 196.6C472.5 196.6 472.2 194.1 472.2 193C472.2 179.7 481.5 179.4 481.5 165C481.5 157.5 476.5 155 473.3 149.6C464.3 145.3 456.8 146 453.9 134.5H451.7L448.5 137.7C444.2 139.2 439.6 135.2 436.7 138.1C435.2 139.5 434.5 140.9 432.4 142.4C429.9 143.8 418.1 153.9 413 153.9C406.9 153.9 403.3 149.6 395.4 149.6C386.4 149.6 385 156 380 158.6C379.6 156.1 378.2 150.7 376.4 150.7C374.2 150.7 373.2 152.5 369.9 152.5C364.5 152.5 359.9 152.5 354.9 152.5C346.6 152.5 343.4 147.1 338 143.5C336.2 142.4 333.3 145.3 332.3 142.8C330.9 139.9 330.9 137.4 328 136C322.6 133.5 319 134.9 314.7 130.6C310.4 126.3 306.4 128.5 298.6 126.7C292.1 125.2 290.3 120.6 283.9 118.4C282.5 118 278.9 118.4 278.2 116.3C276.8 112 277.1 109.1 276 104.8V101.6C279.9 101.6 284.3 102.3 284.3 97.7C284.3 93.8 278.9 92.7 278.9 88.7C278.9 79.4 292.2 80.8 292.2 71.1C292.2 67.5 284 61.1 280.8 61.1C274.7 61.1 272.2 66.5 266.1 67.6C259.3 65.4 255.3 65.4 250 60.1C247.8 57.9 249.6 53.3 245.7 52.2C240.3 50.4 237.1 52.2 237.1 46.1C232.4 45 229.6 45 224.9 45C217.7 45 214.9 51.1 206.6 51.1C198.4 51.1 206.2 32.5 199.1 32.5C191.6 32.5 190.1 41.1 186.9 41.1C186.2 41.1 185.5 41.4 184.8 41.1C181.9 45.8 176.2 50.1 169.4 50.1C166.5 50.1 165.4 46.2 162.6 46.2C160.5 46.2 151.8 49.1 151.1 44.7C147.9 44.7 149 43.3 145.4 43.3C136.4 43.3 135.7 52.6 129.6 58.7C126.7 61.6 122.4 61.6 119.5 64.4C117.4 66.5 115.6 70.1 111.3 70.1C107.7 70.1 105.9 67.2 102.3 67.2C101.2 67.2 101.2 69 100.5 69.3C98 70.7 92.3 83.6 92.3 84.4C92.3 85.5 93.4 87.3 92.3 88C93.4 89.8 93 90.5 93.7 92.3V103.4C95.1 106.6 94.1 108.8 95.5 112C96.9 115.2 104.1 112 104.1 118.1C104.1 125.7 96.2 124.2 96.2 130.7C96.2 135 99.4 135 100.5 137.2C106.2 149.1 118.8 150.8 118.8 166.3C109.5 168.4 103.4 170.2 103.4 180.3C103.4 182.8 104.8 184.6 104.8 186.4L117.4 185.7C118.1 185 119.2 183.9 120.6 183.2L129.9 185.7C133.5 185.7 134.6 182.9 138.9 182.9C142.9 182.9 145.7 182.2 149.7 183.2C154 184.7 156.1 192.9 159 197.6C162.6 203 173 210.1 180.1 210.1C183 210.1 185.5 210.1 188.4 210.8C186.9 212.2 186.6 215.4 183.7 216.2C180.5 217.3 178 215.5 174.7 217.7C180.1 223.1 184.4 234.2 195.5 234.2C204.8 234.2 205.2 222 209.8 217.4H212.7C212.7 218.8 210.5 221.3 210.5 222.4C210.5 227.1 214.1 231.4 214.1 237.1C214.1 241.8 212.3 242.5 212.3 247.9L213.7 248.2Z" fill="white"/>
<path opacity="0.3" d="M493.3 451.6C492.2 451.6 492.9 449.4 492.2 448.4C491.8 447.7 487.5 447.3 486.5 446.6C484.7 445.5 482.2 436.9 481.5 434.1C479 425.9 470.7 427.3 468.2 422.3C466 418 465 415.8 462.8 411.5C461.4 408.3 457.8 409 454.6 408.3C451.7 407.6 446 397.6 444.9 393.9V391C445.6 391 446.3 391 447.1 391C450.7 391 451.4 392.8 454.3 394.3H466.1C474 396.8 476.5 402.2 479.4 407.9C480.1 409.7 481.9 409.3 483.3 409.7C488.7 411.5 491.2 415.8 494.8 419.4C501.6 426.2 505.6 430.9 515.6 434.1C521 435.9 527.1 437.7 527.1 443.1C527.1 443.4 526.4 444.5 526.4 444.9C527.5 444.9 528.2 444.9 529.3 444.9C530.7 444.9 531.8 446.7 532.5 448.1L531.1 451.7C531.1 456.4 534 457.4 537.9 457.4C537.9 464.9 542.2 467.1 546.2 471C548.3 473.2 553.4 474.2 553.4 477.8C553.4 482.5 553.4 485.3 553.4 493.2C549.8 494.6 551.6 499.7 551.6 503.2C551.6 507.2 544.4 508.2 541.9 508.2C540.1 508.2 533.7 498.9 533.3 498.5C526.5 491.7 520 488.8 513.6 482.4C506.4 475.2 503.6 468.8 499.6 460.5C498.7 458.7 494.4 451.6 493.3 451.6Z" fill="white"/>
<path opacity="0.3" d="M614.9 482.4C614.2 482.4 614.5 478.5 614.2 477C611.3 476.6 609.5 478.8 606.7 478.8C593.4 478.8 599.2 466.3 594.5 459.1C594.5 458.7 594.9 457.7 594.9 457.3C594.2 455.5 592.1 455.5 590.2 455.1C588.4 454.7 584.8 441.8 584.8 440C584.8 433.9 592.3 436.4 597.3 436.4C608.4 436.4 607 425.3 612 420.2C614.5 417.7 618.1 417.7 622 417C627.4 415.9 627.4 412.3 630.2 409.5C628.8 408.1 632.7 405.2 632.7 405.2C634.9 404.1 634.5 403.4 636.3 402.7C637.4 402.4 637.7 400.6 638.5 399.8C641.7 396.6 650 398.4 651.4 395.5C654.3 389.8 662.2 376.2 667.9 376.2C674 376.2 673.3 379.8 673.3 385.1C673.3 392.6 688.4 388.3 688.4 395.5C688.4 398.7 680.5 396.6 680.5 399.8C680.5 400.5 681.2 401.6 681.9 401.6C681.2 402.7 671.5 406.6 671.5 406.6C671.8 407.7 672.6 408.7 672.9 409.8C671.8 410.2 670.4 411.2 670.4 412.3C670.4 417.7 680.1 435.6 686.5 435.6C685.4 441 682.5 439.2 678.6 439.2C677.5 439.2 676.1 439.5 675 439.9L673.2 443.5C671.4 451.4 668.5 453.5 668.5 459.6C664.2 460.3 660.6 465.7 660.6 467.9C660.6 470.4 662.4 471.1 662.4 472.9C662.4 475.8 658.1 481.1 658.1 485.1C652.4 486.5 651.6 490.8 647 490.8C643.4 490.8 642.4 487.9 642.4 485.8C636.7 484.3 632.7 480.1 626.6 480.1C623.7 480.1 622 484 617.6 484C616.7 484.2 615.9 482.4 614.9 482.4Z" fill="white"/>
<path opacity="0.3" d="M710.6 458.7C709.2 460.5 708.8 462.3 706.6 462.3C701.2 462.3 699.1 455.5 699.1 450.1C699.1 442.9 704.8 444.4 710.9 444.4C717 444.4 719.5 443 724.5 443C729.1 443 732.4 445.5 737 445.5C744.2 445.5 746.7 439.4 747.8 434C748.9 434 749.2 432.2 749.6 431.1H747.4C743.1 434 738.1 437.2 735.9 439.4H733L707.9 435.1C698.6 435.1 694.3 446.9 694.3 455.5C694.3 457.7 691.4 459.4 691.1 460.9C688.6 469.1 684.6 472.4 684.6 480.3C684.6 484.6 689.6 484.6 691.8 485C691.8 490.7 691.8 498.3 691.8 502.2C691.8 504.4 694.7 506.9 697.5 506.9C701.5 506.9 702.9 494.3 702.9 492.6C702.9 487.9 699.7 485.4 699.7 480.8C699.7 478.3 702.6 476.5 705.1 476.5C706.2 476.5 706.9 476.8 708 476.5L706.6 484C706.6 488.6 712.3 490.4 712.3 495.1C712.3 496.2 712.7 497.3 712.3 498.3H716.9C716.9 494.4 724.8 494.7 724.8 490.8C723.4 490.4 719.8 486.5 719.8 484.3C719.8 483.6 720.9 482.9 721.2 482.2C719.1 481.1 712.2 468.2 712.2 467.1C722.2 467.1 723 459.2 731.2 456.7V453.8C729 453.4 710 459.2 709.7 460.2L710.6 458.7Z" fill="white"/>
<path opacity="0.3" d="M649.6 537.6C646 537.6 646.4 535.1 642.1 535.1C641 535.1 641.7 537.6 642.1 538.7C630.3 534 618.1 533.3 604.1 533.3C599.8 533.3 598.7 528.6 595.1 528.6C588.3 528.6 582.5 528.2 575.4 526.1C570 524.3 564.6 527.9 561.1 524.3C557.5 520.7 554.7 516.4 549.3 516.4C549.7 515.3 556.1 508.9 558.3 508.9C559.4 508.9 560.1 510.4 561.2 510.4C563.3 510.4 564.8 508.2 566.9 508.2C577.7 508.2 582.3 519.7 594.1 519.7C599.5 519.7 600.6 514.3 604.8 514.3C612 514.3 614.5 520.8 621 520.8L631.8 519.4H634.7C634.3 521.2 622.1 522.3 621.4 521.9C625.3 525.8 630 526.5 636.4 526.5C638.6 526.5 638.6 529 639.3 529.7C641.8 532.2 644.7 529.3 647.9 530.4C651.1 531.5 651.1 532.6 653.6 533.6C652.9 535.1 650.4 537.6 649.6 537.6Z" fill="white"/>
<path opacity="0.3" d="M717.4 539.8C712.4 539.8 707.4 539.8 704.5 539.8C702 539.8 696.6 540.2 696.6 536.2C696.6 533.3 700.6 533.7 703.1 533.7C709.6 533.7 712.1 536.2 717.4 536.2C722.8 536.2 724.6 534 727.8 532.6C725.3 537.3 722.1 538.3 717.4 539.8Z" fill="white"/>
<path opacity="0.3" d="M687.3 539.4H684.1L681.2 538C677.6 539.4 676.2 541.6 672.6 541.6C669.7 541.6 665.4 540.5 665.4 539.1C665.4 535.1 668.3 535.5 671.5 535.5C674.7 535.5 676.5 536.2 678.3 536.9C678.3 535.8 678.6 535.1 678.6 534H687.2C687.3 536.9 686.6 538.7 687.3 539.4Z" fill="white"/>
<path opacity="0.3" d="M700.2 554.8C698.4 554.8 698.1 551.2 698.1 550.1C694.5 550.1 688.8 549.7 688.8 546.2C688.8 543.3 693.1 544 695.6 544C696.6 544 698.1 544 699.2 544C699.2 549 704.6 548 704.6 552.2C704.6 553.3 702.8 554.7 701.7 554.7C701.3 554.8 700.6 554.8 700.2 554.8Z" fill="white"/>
<path opacity="0.3" d="M657.2 533.6C658.3 533.6 659.4 533.6 660.4 533.6C662.2 533.6 662.2 535.4 663.7 536.1C663.3 538.2 661.9 539.7 660.1 539.7C659 539.7 657.2 538.2 657.2 537.2C657.2 536.2 657.2 534.7 657.2 533.6Z" fill="white"/>
<path opacity="0.3" d="M749 544.8C747.2 544.8 749 548.4 747.9 549.5C746.1 551.3 740 555.6 736 555.6C734.6 555.6 733.5 553.8 733.5 552.4C733.5 544.5 740.3 544.5 745.7 542.7C746.8 542.3 746.8 540.2 747.5 539.5C751.1 535.9 766.9 534.5 770.1 536.6C766.6 541.9 754.7 544.8 749 544.8Z" fill="white"/>
<path opacity="0.3" d="M846.5 505C847.2 507.9 847.9 506.4 847.9 508.9C847.9 511.1 846.8 512.5 845 512.5C845 516.1 845.7 520.1 842.8 520.1C841.7 520.1 840.7 518.3 840.7 517.2C840.7 513.6 844.3 513.2 844.3 511.1C844.4 508.6 844 505.3 846.5 505Z" fill="white"/>
<path opacity="0.3" d="M769.4 483.8C769.4 484.5 766.9 488.4 765.8 488.4C763.6 488.4 759.4 484.4 759.4 481.6C759.4 477.4 769.4 480.2 769.4 483.8Z" fill="white"/>
<path opacity="0.3" d="M803.1 479.5C803.5 482.4 807.4 483.1 807.4 486C807.4 486.7 806 486.7 805.3 486.7C800.3 486.7 797.8 483.1 792.7 483.1C789.1 483.1 787.3 483.1 784.5 483.1C783.1 483.1 778.1 481.6 778.1 481.6C778.1 479.8 779.9 479.1 780.6 478.4H796.7C797.4 480.9 799.9 479.8 802.1 479.8L803.1 479.5Z" fill="white"/>
<path opacity="0.3" d="M776.9 447.3V444.8C779.8 444.8 783.7 444.4 785.1 444.1C784.8 441.2 782.2 440.5 782.2 438.7C782.2 436.6 785.8 436.2 785.8 434.1C779.7 432.7 777.2 429.8 776.5 424.8C773.6 426.3 773.3 429.1 773.3 432C773.3 436.7 776.2 438.1 776.2 442C776.2 445.6 776.2 444.5 776.2 446.7C776.2 448.9 777.3 453.5 780.9 453.5C779.1 450.8 778.4 449.4 776.9 447.3Z" fill="white"/>
<path opacity="0.3" d="M1000.3 512.2C997.4 508.6 990.9 509.7 989.9 505H1000.6C1001.3 505.3 1004.6 503.9 1004.6 503.9C1010 502.1 1015.4 502.5 1018.6 501C1023.6 498.5 1021.5 490.6 1026.5 490.6C1028.7 490.6 1029.7 493.8 1029.7 496C1029.7 503.5 1022.2 502.1 1022.2 508.6C1015.7 510 1012.5 514 1005 514C1003.6 514 998.9 511.5 998.5 510.4L1000.3 512.2Z" fill="white"/>
<path opacity="0.3" d="M910.7 473.1C915 477.4 927.9 482.1 936.9 482.1C941.2 482.1 943.4 487.1 947.6 487.1C947.6 490 950.5 490.3 952.3 490.7C963.8 494.3 963.4 504 972 508.3C975.6 510.1 983.1 506.1 983.1 514C983.1 517.9 976.3 516.5 976.3 519.7C976.3 521.5 982.4 527.6 983.1 528.3C986.7 531.9 986 534.4 988.8 538.7C989.9 540.5 994.2 542.3 996.7 542.3C997.8 542.3 998.8 544.8 999.6 546.3C1000.3 548.1 1002.5 546.6 1003.9 547C1006.1 547.7 1006.8 549.9 1007.5 551.3C1008.2 553.1 1013.6 552.4 1014.7 552.7C1012.5 554.1 1010 555.9 1010 558.4C1009.3 558.4 1008.6 558.4 1007.8 558.4C1007.1 558.4 1001.7 554.8 1001 554.1H991.7C986.3 553 978.1 549.1 978.1 545.1C978.1 543.6 975.2 543 974.5 542.2C967.3 535 960.9 525 949 525C940 525 940.8 531.4 935.7 533.9C937.1 538.6 933.9 540 933.9 542.5C925.7 542.5 924.2 542.5 920.3 542.5C911 542.5 908.5 531.4 899.2 531.4C897.8 531.4 893.8 531.7 893.8 533.5H886.3C883.8 533.5 880.6 533.5 880.6 530.6C880.6 526.3 887.4 524.5 889.6 523.4C884.6 518.4 886.7 513.4 884.9 508C883.5 503.7 873.4 499.8 869.9 497.9C865.9 496.1 856.3 494.3 850.5 494.3C845.1 494.3 843 485 837.2 486.8V483.6C836.1 486.5 834.7 490 831.8 490C830.7 490 828.6 490 828.2 488.9C826.4 485.3 828.2 483.9 826.4 481C824.6 478.1 820.7 479.6 819.9 476.7C824.9 474.2 835.7 474.9 838.2 470.6H835.7C831.8 471.7 829.3 472.1 825.3 472.1C823.5 472.1 822.1 471.4 820.3 471C819.2 470.6 818.5 468.8 818.1 467.8C815.6 462.8 807 464.9 807 459.9C807 457.8 809.9 456.7 812 456.7C816.3 456.7 818.8 450.6 825.3 450.6C831.4 450.6 836.1 456.3 842.5 457.8C842.5 462.8 842.5 467.8 842.5 470.7C842.5 472.5 844.7 473.9 847.9 473.9C847.9 475.4 852.9 481.1 855.1 481.1C857.6 481.1 860.8 475.8 861.5 475C864.4 472.1 865.1 471.8 870.1 470.3C873.3 469.2 877.6 462.8 881.9 462.1C882.3 463.9 885.1 463.5 886.2 463.9C890.5 465.3 893.4 469.6 895.5 470.7H905.2C907 472.5 910.9 473.6 912.4 473.9V474.6L910.7 473.1Z" fill="white"/>
<path opacity="0.3" d="M1036.5 494.6C1032.2 493.9 1032.2 491.3 1032.9 487.8C1028.2 485.7 1028.9 481.7 1024.3 478.8C1021.4 477 1018.9 477.4 1017.8 474.5C1024.6 476.6 1027.8 480.9 1031.8 484.9C1034.7 487.8 1038.6 487 1038.6 492.1C1038.6 492.8 1038.2 493.9 1038.6 494.6C1038 494.6 1037.2 495.3 1036.5 494.6Z" fill="white"/>
<path opacity="0.3" d="M1060.2 511.8C1055.9 511.1 1054.4 507.5 1055.2 503.9C1057.4 505.3 1064.9 513.2 1064.9 514.3C1064.9 515.4 1063.5 517.2 1062.4 517.2C1061.3 517.2 1060.3 515.8 1060.3 514.7C1060.2 513.6 1060.2 512.9 1060.2 511.8Z" fill="white"/>
<path opacity="0.3" d="M1130.1 557.3C1130.1 558 1129.8 558.7 1130.1 559.4C1126.5 559.4 1124 554 1124.4 551.9C1127.3 553.8 1130.1 554.5 1130.1 557.3Z" fill="white"/>
<path opacity="0.3" d="M1120.4 551.2C1120 551.2 1119 551.9 1118.6 551.9C1114.3 551.9 1108.5 550.5 1108.5 546.2C1114.3 546.2 1117.9 547.6 1120.4 551.2Z" fill="white"/>
<path opacity="0.3" d="M1120.8 543.7C1117.2 543.7 1110.8 535.1 1110.4 532.3C1115.4 535.1 1119 538.3 1120.8 543.7Z" fill="white"/>
<path opacity="0.3" d="M1089.9 523.6C1093.1 525.4 1100.3 527.5 1102.5 530.8C1101.8 531.2 1100.7 531.5 1099.6 531.5C1096.8 531.5 1088.5 528.6 1088.5 524.7H1089.2L1089.9 523.6Z" fill="white"/>
<path opacity="0.3" d="M1072.4 514.7C1076.3 517.6 1078.9 516.5 1081 519.7H1077.8L1072.4 516.1C1072.8 516.1 1074.2 516.1 1074.2 515.8L1072.4 514.7Z" fill="white"/>
<path opacity="0.3" d="M813.9 564.9V570.3C812.8 570.3 811.4 570.3 810.3 570.3C806 570.3 801 568.2 799.5 566.7C806 565.2 808.5 564.5 813.9 564.9Z" fill="white"/>
<g opacity="0.3">
<path opacity="0.3" d="M758.3 378C758 377.1 757 376.4 756.4 375.5C755.1 377.4 753.4 378 753.4 379.8C753.4 382 757.2 383 757.2 386.4C757.2 388.9 755.8 390.7 753.5 390.7C752.5 390.7 751.9 389.1 751.9 388.2C750.9 388.8 749.6 388.5 748.6 388.5C744 388.4 740.2 383.4 740.3 377.4C740.4 375.2 741 374.3 742 373.7C741.7 372.7 741.1 371.5 740.7 370.6L736.1 370.5C736.1 371.4 735.7 372.4 736 373.3C734 373.3 733.4 372.3 732.8 371.7C732.8 371.7 732.1 373 731.8 373.3C730.8 373 728.6 370.4 728.6 370.4C725.3 373.5 725.7 383.8 722.1 383.7C719.5 383.7 722.2 377.8 722.2 376.5C722.2 375.6 720.9 374.3 721 373.4C721 370.3 722.4 368.4 723.1 365.3C730 365.4 728.4 358.5 734.3 358.6C738.5 358.7 737.8 363.6 740.1 363.7C740.8 363.7 741.4 363.7 742.1 363.7C742.1 361.5 743.1 360 745.1 359.7C745.2 355.3 751 356.7 752 354.8C753 352.6 752.8 348.3 753.1 347.3C755.4 347.3 757 348.9 758.3 350.2C760.9 352.7 766.1 371.3 766.1 374.1C766 377.6 762.1 379.3 762 384.6C760.7 384.3 757.9 377.3 757.9 376.7L758.3 378Z" fill="white"/>
<path opacity="0.3" d="M679.2 359.8H676.9C680.3 350.5 691.5 346.9 695.2 340.2C695.9 338.7 695.9 337.1 696.9 336.2C696.8 339.3 698.5 340 699.7 341.2C698.4 342.1 698 343.1 696.4 343C695.7 345.8 693.4 346.4 690.8 346.3C689.4 353.4 683.1 357.4 679.2 359.8Z" fill="white"/>
<path opacity="0.3" d="M697.2 283C698.5 280.9 699.3 276.5 699.3 273.7C699.4 270 697.8 267.4 697.9 263.7C697.9 260.6 698.7 257.5 701.3 257.5C704.9 257.6 704.2 263.2 707.1 263.2C709.1 263.2 710.1 260.7 711.4 260.2C711.4 260.5 712 261.5 712 261.8C712 262.4 712.6 263.4 712.6 264C712.5 268.1 716.7 272.8 716.6 278.1C716.5 285 710.6 285.5 710.5 292C710.4 296.7 714.8 304.6 718.4 306.2C718.4 305.9 718.4 305 718.4 304.6C718.4 303.4 720.1 302.1 722 302.2C725.9 302.3 726.8 309.5 728.7 309.5C730 309.5 730.4 307.4 731.7 307.4C732.4 307.4 733 308 733.6 308.1C733.2 310 731.6 310.2 731.6 311.8C731.6 312.4 733.2 312.1 733.9 311.8C733.8 314.3 735.8 315.6 738.1 315.6C738.1 316.6 738.1 317.2 738.1 318.1C738.1 318.7 737.4 320 736.8 319.9C735.8 319.9 735.5 318.3 735.2 317.4C733.3 313.6 725.5 310.7 723.6 307.8C721.9 309.9 722.9 311.2 723.8 313.7C719.2 313.6 719 306.8 714.4 306.7C712.5 306.7 711.1 308.5 709.1 308.5C706.8 308.4 704.2 305.6 704.3 304C704.3 302.1 705.7 301.2 706.3 300.6V297.5H704.4C703.7 298.4 703 299.7 702.1 299.6C700.8 299.6 695 295.7 695 293.9C695.1 288.9 693.9 282.4 697.2 283Z" fill="white"/>
<path opacity="0.3" d="M752.8 337L747.9 336.9C748.2 339.4 749.4 342.5 750.7 343.2V345.1C749.7 345.1 748.8 345.1 747.8 345.1C745.5 345.1 744.9 342.5 746.2 340.7V338.8C743.9 338.8 741.7 335.6 741.4 334.7V332.8C743 332.8 745.3 332.9 745.7 332.9C746.3 332.9 747.4 331.7 747.4 331.1C747.5 326.7 740.3 324.4 739.7 321.9C740.7 321.6 741.7 320.7 742.7 320.7C745.3 320.8 747.3 322 749.9 322.1C749.9 323 750.2 324.3 749.8 325.2C750.5 325.2 751.1 325.2 751.8 325.2C752.1 327.1 751.7 330.2 751.7 330.2C751.7 330.2 753.9 333.1 754.3 333.1C753.8 334.9 753.2 335.8 752.8 337Z" fill="white"/>
<path opacity="0.3" d="M720.6 327.4C721.9 329 730 330.1 730 332.9C729.9 338.2 722.3 340.9 719.4 342.7C719.5 337.4 718.3 331.5 718.3 328.6C718.3 328 719.6 327.1 720.3 327.1C721 327.1 721.9 328.4 722.2 328.7L720.6 327.4Z" fill="white"/>
<path opacity="0.3" d="M736.4 340.8C736.3 344.5 732.7 347 732.6 350.7C732.5 353.5 734.2 352.9 734.2 354.8C734.2 355.4 732.9 356.3 732.2 356.3C730.9 356.3 725.1 350.2 725.1 348.1C725.1 347.2 727.1 346.3 728.1 346.3C728.1 345.4 729.9 337.6 731.6 337.3C734.9 336.4 736.5 339 736.4 340.8Z" fill="white"/>
<path opacity="0.3" d="M740.7 337.8C740.6 343.4 736.3 344.9 736.2 349.6C735.9 349.6 734.9 349.6 734.6 349.6C735.6 345.9 737.7 343.4 737.8 337.8C738.7 337.7 739.7 337.8 740.7 337.8Z" fill="white"/>
<path opacity="0.3" d="M744.8 345.6C744.7 349 742.4 351.8 739.5 351.7C738.8 351.7 737.6 350.8 737.6 350.1C737.6 348.3 739.6 347.3 740.6 345.5C742.2 346.2 743.8 346.9 744.8 345.6Z" fill="white"/>
<path opacity="0.3" d="M729.8 325.1C729.8 322.9 729.8 321.7 729.9 320.4H732.8C733.7 323.2 738 324.3 737.9 328.3C737.9 329.9 734.3 326.7 734.4 325.1C732.8 324.9 731.4 325.1 729.8 325.1Z" fill="white"/>
<path opacity="0.3" d="M711.9 322.6C709.9 322.6 702.6 310.6 702.6 310.6H705.9C709.8 313.1 713.4 312.6 714.3 316.4C714.9 318.9 713.2 322.6 711.9 322.6Z" fill="white"/>
<path opacity="0.3" d="M715.3 312.7C715.9 313.3 717.9 313.1 718.6 312.7C717.9 312.1 716 312.4 715.3 312.7Z" fill="white"/>
</g>
<path opacity="0.3" d="M703.4 214.5C696.9 214.5 698 209.8 698 204.4C698 196.9 705.6 182.9 710.6 182.9C719.6 183 711.7 214.5 703.4 214.5Z" fill="white"/>
<path opacity="0.3" d="M580.8 247.5C583.7 247.5 595.9 238.6 600.5 238.6C602.3 238.6 604.8 241.8 604.8 244C604.8 249 594.1 260.1 588.7 260.1C583.3 260.1 580.8 257.6 580.8 252.9C580.8 250.8 579 247.5 580.8 247.5Z" fill="white"/>
<path opacity="0.3" d="M479.7 344.4C482.6 338.3 483.6 334.3 486.9 327.5C487.3 326.4 489.8 325.3 489.8 323.6C489.8 320.7 484.8 303.9 482.3 301.4C479.8 298.9 475.8 297.1 475.8 293.1C475.8 292 476.1 291 476.1 289.9V290.3C476.8 289.6 479.7 285.6 479.7 282.8C479.7 278.5 479.4 271 476.8 267C474.7 263.8 470 263.8 470 257.3C470 250.8 472.2 245.8 475.8 242.2C477.6 240.4 481.9 241.1 484.7 239.3C493.3 233.6 498.7 230.7 505.9 219.9H508.1C508.1 222.7 509.5 223.8 510.3 223.8C511.4 223.8 512.1 221.6 512.1 220.6C512.1 217 512.1 214.9 512.1 211.3C512.1 211.3 520.3 208.8 521.8 209.2H533.3C538.3 211.7 542.3 204.2 547.6 204.2C553.3 204.2 556.9 208.2 563 208.2C563 217.5 570.2 220.4 575.5 222.2C568.3 233.3 550.8 235.9 550.8 251.2C550.8 254.4 552.6 255.1 554 256.6C562.2 264.8 565.8 274.2 574.8 279.9C583.4 285.6 589.2 301.4 589.2 313.2C589.2 321.5 584.9 324.7 584.9 331.1C573.4 334 572.3 337.9 563 342.6C558.7 344.8 559.4 350.5 555.1 350.5C554 350.5 554 348.4 554 347.3C554 349.4 554 350.9 554 351.2C554 354.8 546.8 360.2 545.4 360.2C544 360.2 542.5 355.2 542.5 353C542.5 350.1 542.5 348.7 543.9 348C542.5 347.3 541.7 344.4 541.4 342.6C536 342.6 528.9 340.8 528.9 335.4C521 335.4 524.9 330.1 520.6 325.7C515.6 320.7 510.6 320.3 504.8 318.5C504.1 318.5 503 313.8 503 313.8C501.9 309.8 497.6 309.2 493.7 309.2C490.8 309.2 491.5 311.3 491.5 313.1C491.5 316.4 492.9 317.1 492.9 320C492.9 330.8 482.5 333.6 482.5 343.3C482.5 354.4 494.7 350.1 494.7 360.5H494C495.4 363 495.8 369.5 498.3 372C508 381.7 529.1 383.8 529.1 401.8C529.1 405.4 527.7 405.4 527.7 408.6C527.7 415 533.1 417.2 534.5 421.5C535.9 426.2 535.9 428 537.7 431.9C534.8 432.3 534.5 432.3 533.1 432.3C532 432.3 531.7 433.7 530.6 433.7C527 433.7 526.7 431.2 524.5 430.5C513.4 426.9 503.3 416.2 499.4 404.3C496.2 393.9 495.5 386.4 491.5 378.1C489 373.1 486.5 360.2 480.7 360.2C477.1 360.2 479.3 362.4 476 360.2C475.3 360.2 476 358.8 476 358C476 353 476.7 349.4 477.8 344.4H478.5H479.7V344.4Z" fill="white"/>
<path opacity="0.3" d="M556.4 476.3C555.7 476.3 554.2 472.4 553.9 471.3C552.5 468.4 546.7 470.2 546.7 467.4C546.7 465.6 551.7 463.1 554.2 462.7C556 468.1 558.1 474.9 563.2 474.9C563.2 476 563.2 477.4 563.6 478.5C562.9 478.5 561.8 478.5 561.1 478.5C558.9 478.4 557.9 476.3 556.4 476.3Z" fill="white"/>
<path opacity="0.3" d="M572.6 474.5C573.7 474.5 575.1 474.5 576.2 474.5C577.3 474.5 578.4 476 579.5 476.3C579.1 478.4 577.7 480.6 575.5 480.6C573.4 480.6 572.6 478.1 572.6 476.3C572.6 476 572.2 474.5 572.6 474.5Z" fill="white"/>
<path opacity="0.3" d="M482.9 458.7C485.8 462.3 488.3 464.4 487.9 468.7C486.1 468.3 481.4 462.6 481.4 460.1C481.4 459.7 481.4 459 481.4 458.7H484.3C484.3 459.1 484.3 460.5 484.3 460.5L482.9 458.7Z" fill="white"/>
<path opacity="0.3" d="M470.4 436.9C472.6 438.3 478.3 445.5 475.4 445.5C474 445.5 469.3 439.8 468.9 437.6H468.6L470.4 436.9Z" fill="white"/>
<path opacity="0.3" d="M805.3 104.8L806.7 99.8C804.6 99.1 804.2 96.9 803.8 95.1C803.8 96.2 803.1 97.3 803.8 98.3C802 98.3 800.6 99.8 799.5 99.8C797.7 99.8 795.9 97.6 795.9 95.9C795.9 93.7 805.9 86.9 807 86.9C809.9 86.9 812 89.8 816.3 89.8C816.3 90.9 815.6 93.4 816.7 93.4L819.9 96.3C819.9 97.4 819.2 98.8 819.9 99.9C818.8 99.9 817.8 100.6 816.7 99.9C815.6 106.3 812.8 117.5 807.7 117.5C806.6 117.5 806.6 115.4 806.6 114.3V116.4C803.7 116.4 801.6 112.1 801.6 110.7C801.7 109.8 805.3 104.8 805.3 104.8Z" fill="white"/>
<path opacity="0.3" d="M842.9 92.3C840.1 92.3 838.6 90.1 837.5 89.8C834.3 93 833.6 98.8 828.9 98.8C827.1 98.8 826.4 95.1999 826.7 93.3999C824.5 91.9999 823.8 91.2 823.8 89.5C823.8 89.5 830.6 84.5 830.6 84.1C836.7 85.9 837.8 79.8 842.8 79.8C850.8 79.7 846.5 92.3 842.9 92.3Z" fill="white"/>
<path opacity="0.3" d="M854 87.3C852.9 87.3 854 85.5 854 84.4C854 82.3 855.1 79.7 855.1 78.3C850.8 77.2 848.6 75.1 844.3 75.1C842.1 75.1 841.7 77.6 840.7 78C837.8 79.4 835.7 77.6 832.8 79.1C828.1 81.2 821.7 84.1 814.1 84.1C811.6 84.1 809.1 84.1 809.1 82.7C809.1 81.6 812.4 80.9 813.8 80.2C821.3 75.2 824.6 66.2 833.9 66.2C844.7 66.2 847.9 66.2 856.1 66.2C862.2 66.2 864.4 55.1 867.6 55.1C868 55.1 872.6 46.5 873.7 46.1C872.6 47.2 871.9 48.6 871.9 50C871.9 50.7 873 51.8 873.7 51.8C879.1 51.8 879.8 48.2 884.1 46.8C891.6 44.3 903.8 29.2 903.8 17.7C903.8 15.2 902.4 15.2 902.4 13.4C902.4 9.09996 906 0.199951 910.7 0.199951C911.4 0.199951 911 4.89999 915.3 1.29999C915 1.29999 914.6 1 914.2 1C913.1 1 912.4 -2.20001 913.5 -2.20001C916 -2.20001 917.4 -1.50002 917.8 -0.400024C918.9 2.09998 918.5 4.29999 918.5 6.79999C918.5 11.8 923.5 14.3 923.5 19.3C923.5 25.1 918.5 25.8 918.5 30.4C918.5 31.1 918.5 31.8 918.5 32.6C917.4 33.7 916.3 33 915.3 33.3C911.7 34.4 912.8 45.5 912.8 49.4C912.8 52.6 908.9 54.8 908.9 59.4C908.9 62.6 910 64.1 910.7 66.2C906.4 68.4 906.4 72 902.1 73.4C900.7 70.5 902.1 70.2 902.4 67.7C897.4 70.9 894.2 71.3 892.7 76.3C892 76.3 890.9 75.2 890.9 74.5H887.3C885.1 76.6 883 78.8 880.1 78.8C872.6 78.8 872.9 72.7 869.7 72.7C868.6 72.7 867.5 74.5 867.5 75.6C867.5 77 870.7 81.3 871.1 81.3C870 81.7 868.6 81.7 867.5 81.7C865 81.7 860.7 87.4 858.9 91C856.2 90.1 856.5 87.3 854 87.3Z" fill="white"/>
<path opacity="0.3" d="M811 -20.3C811 -20.3 825 -16.7 836.1 -16.7C856.5 -16.7 875.8 -59.9 890.2 -74.2C895.9 -79.9 903.9 -91.6 906 -100.9C908.5 -111.3 904.3 -118 909.9 -127.9C912 -131.6 916.2 -139.7 916.2 -147.6C916.2 -157.3 900.7 -176.2 893.5 -170.8C872.3 -154.8 861.2 -179.4 861.2 -181.5C861.2 -191.5 880.6 -202.6 888.1 -210.2C899.2 -221.3 913.9 -239.9 929.4 -244.3C943 -247.9 985.7 -251.5 997.5 -251.5C1012.2 -251.5 1019 -244.3 1028 -244.3C1033 -244.3 1036.3 -244.3 1047.7 -244.3C1053.5 -268 1064.2 -282 1089 -282C1095.4 -282 1098.3 -283.8 1110.5 -282C1104.4 -277.3 1101.8 -246.3 1141 -294.5C1145 -295.2 1163.7 -287.5 1135.6 -269.4C1125.8 -263.1 1117 -266.2 1110.5 -256.9C1103 -246.1 1096.2 -232.5 1085.4 -226.4C1076.4 -221.4 1063.9 -213.1 1063.9 -197.7C1063.9 -184.4 1068.2 -141.1 1078.2 -133.2C1085.4 -144 1090.4 -163.7 1105.1 -167.3C1103.3 -177.3 1119.4 -179.5 1119.4 -187C1119.4 -198.8 1131.9 -202.1 1131.9 -208.5C1131.9 -212.8 1128.4 -217.2 1131.9 -224.6C1160.9 -286.6 1187.5 -253.3 1198.2 -253.3C1230.1 -253.3 1252.7 -294 1280.7 -294.5C1333.9 -295.6 1291.5 -315.7 1291.5 -321.4C1291.5 -336.8 1312.3 -334.3 1316.6 -342.9C1318.4 -346.5 1314.8 -355.5 1322 -355.5C1344.6 -355.5 1363.2 -325 1379.4 -325C1386.6 -325 1388 -338.3 1391.9 -342.9C1398 -350.1 1403.8 -349.4 1413.4 -352.6C1400.5 -369.8 1358.5 -379.5 1338.1 -391.3C1309.8 -407.8 1272.1 -425.4 1230.6 -425.4C1219.1 -425.4 1211.1 -423 1212.7 -418.2C1223.8 -383.4 1196.2 -418.6 1189.4 -418.2L1106.9 -420C1102.2 -438.6 1090 -445.1 1065.7 -445.1C1052.4 -445.1 1032.4 -440.1 1024.5 -446.9C1017.3 -453 1017 -461.6 1006.6 -464.8C984.7 -472 961.1 -477.3 933.1 -477.3C905.1 -477.3 901.2 -462.6 899 -448.6C872.5 -448.6 859.6 -448.6 841.7 -448.6C831.6 -448.6 830.2 -456.8 818.4 -457.6C817.3 -452.6 815.2 -441.5 809.4 -441.5C794.3 -441.5 787.9 -460.2 787.9 -470.2C787.9 -472.7 816.9 -491 743.1 -497.1C733.8 -497.9 728.8 -493.9 728.8 -482.8H689.4C677.6 -486 615.5 -493.2 607.6 -506.1C560.5 -467.7 571 -491.8 571 -491.8C582.1 -505.8 690.5 -535 601.5 -556.4H563.8C560.2 -566.4 552.3 -576.1 536.9 -576.1C518.3 -576.1 510.7 -562.1 501 -554.6C493.9 -549.2 447.5 -530.6 451.5 -547.4C439.7 -543.8 389.2 -540.4 362.9 -516.9C357.4 -512 355.7 -497.2 347.5 -497.2C335.7 -497.2 291.2 -501.5 291.2 -481C291.2 -476.7 295.2 -472.4 296.6 -466.7C288.7 -461.7 285.9 -466.7 260.8 -466.7C239.5 -438.2 241.4 -471 236.4 -477.4C234.6 -465.9 227.1 -460.9 217.8 -455.9C220.7 -445.8 236 -435.4 225 -423.6C217.4 -415.5 239.6 -388.8 227.9 -388.8C212.8 -388.8 208.8 -443 208.8 -454.1C208.8 -466.3 228.8 -471.3 198.1 -477.4C182.6 -480.5 153.3 -455.2 153.3 -441.6C153.3 -425.1 160.8 -414.3 169.4 -405.7C189.4 -374.5 141.7 -409.3 123.9 -413.9C74.8 -426.6 90.6 -410 90.5 -407.5C88.9 -379.9 77.2 -402.1 70.8 -402.1C59.7 -402.1 37 -387 20.6 -394.9C12.4 -416 -41.4 -368 -54.7 -368C-59 -368 -65.2 -371.2 -63.7 -375.2C-58.1 -389.7 -66.2 -421.1 -81.6 -373.4C-82.6 -370.3 -76.2 -369.1 -76.2 -362.7C-76.2 -350.1 -94.8 -358.8 -104.9 -355.5C-114.9 -352.3 -110.1 -318 -151.5 -335.8V-321.5C-171.9 -323.3 -169.4 -345.2 -176.6 -355.6C-161.2 -355.6 -152.8 -356.1 -137.9 -352.2C-118 -347 -77.8 -371.9 -139 -391.5C-156.5 -397.1 -195.3 -416.6 -207.1 -416.6C-208.2 -416.6 -208.5 -418 -216.8 -417C-221.8 -413.4 -234.7 -407 -234.7 -398.7C-234.7 -391.9 -222.1 -392.2 -222.1 -384.4C-222.1 -378.3 -228.6 -375.4 -228.6 -369.3C-228.6 -362.5 -221.4 -358.5 -221.4 -351.4C-221.4 -347.1 -225 -344.9 -225 -340.6C-225 -332.7 -214.3 -330.6 -214.3 -322.7C-214.3 -320.6 -217.6 -318.7 -218.6 -318C-215.4 -312.3 -207.1 -310.8 -207.1 -302.9C-207.1 -291.1 -231.8 -277.8 -239.4 -267.8C-236.5 -263.8 -232.9 -262.1 -230.4 -255.2C-234.7 -252.3 -245.5 -247.3 -250.1 -247.3C-256.2 -247.3 -260.1 -249.8 -268 -249.8C-275.9 -249.8 -293.9 -242.5 -288.4 -237.4C-270.3 -220.5 -279.8 -214 -284.1 -214C-291.3 -214 -292.3 -223 -298.5 -223C-304.9 -223 -312.8 -206.5 -312.8 -197.9C-312.8 -183.9 -324.3 -185.8 -325 -173.3C-320.2 -173.8 -315.8 -174.3 -312.1 -174.3C-305.3 -174.3 -300.9 -174.8 -293.7 -174.8C-286.2 -174.8 -282.6 -161.4 -282.6 -153.5C-282.6 -148.8 -287.6 -146.3 -287.6 -141.7C-287.6 -134.2 -280.8 -129.5 -280.8 -122.7C-280.8 -118.4 -287.6 -117 -289 -114.8C-293.3 -108.3 -294.7 -102.6 -294.7 -94C-294.7 -84 -287.5 -86.1 -279.3 -86.1C-267.8 -86.1 -262.4 -90.8 -253.8 -90.8C-244.1 -90.8 -246.3 -72.2 -237.3 -72.2V-57.5C-237.3 -56.4 -236.2 -55.7 -235.5 -55L-233.7 -52.8C-231.9 -52.8 -227.6 -54.6 -225.1 -55C-217.2 -57.1 -216.5 -66.5 -208.6 -66.5C-202.2 -66.5 -185.7 -39.6 -180.7 -39.6C-175.7 -39.6 -158.5 -47.1 -155.6 -50.7C-156.3 -50.7 -165.6 -52.1 -165.6 -52.1C-167 -52.1 -171.7 -53.2 -171.7 -57.5C-171.7 -60.4 -145.5 -70.1 -135.8 -73.6C-135.8 -73.6 -140.5 -68.2 -142.3 -67.5C-141.6 -65.4 -132.2 -55.6 -153.1 -50.3C-144.1 -29.1 -102.9 -32.7 -102.9 -4.39999L-101.5 -4.60001C-99.4 -5.50001 -97.1 -6.10001 -94.3 -6.10001C-82.5 -6.10001 -83.2 0.699982 -79.6 8.19998C-78.9 9.59998 -71.7 13.9 -71 13.9C-64.5 16.1 -63.1 26.8 -53.1 26.8C-45.2 26.8 -45.6 20.3 -40.2 18.6C-37.3 17.5 -37.7 17.9 -35.2 17.5C-34.1 19.6 -34.1 22.5 -32.7 24C-33.1 24.7 -32.7 25.4 -32.7 26.2L-27.7 26.9C-23.4 21.2 -23.4 12.6 -17.7 9.69998C-27.4 4.29998 -42.1 -17.2 -42.1 -29.4C-42.1 -33 -50 -38.3 -50 -43.7C-50 -45.5 -43.2 -58.8 -41.4 -60.9C-39.6 -59.8 -28.9 -65.9 -27.8 -66.3C-18.5 -69.9 -12.7 -72.4 -0.899994 -72.4C18.5 -72.4 21.7 -63.1 28.9 -52.3C23.5 -48 16.4 -52 9.90002 -52C0.200025 -52 -14.1 -42.7 -15.2 -43C-14.8 -35.8 -9.09999 -36.2 -6.89999 -32.2C-0.0999937 -20.4 9.60001 -15.7 9.60001 -1.69998C12.5 -3.09998 19.3 -6.70001 21.8 -7.10001C22.2 -1.70001 27.9 1.20003 27.9 6.50003H17.2C14 6.50003 10.7 10.1 10 15.5C17.5 16.6 22.6 23.7 22.6 30.5C22.6 34.5 20.1 35.5 20.1 38.7C20.1 41.9 23.3 45.9 23.7 46.2C23.7 43 28 43 31.2 41.9C35.5 40.5 34.4 39 38 37.6C44.8 35.1 48.8 36.7 54.2 32.7C62.3 37.2 66.7 37.6 74.2 40.1C82.8 43 85.7 50.9 96.1 50.9C96.5 53 98.6 53.8 99 55.2C100.2 58.9 99 63.3 100.8 68.2C104.8 63.7 107.9 69.9 111.5 69.9C115.8 69.9 117.6 66.3 119.7 64.2C122.6 61.3 126.9 61.3 129.8 58.5C135.9 52.4 136.6 43.1 145.6 43.1C149.2 43.1 148.1 44.5 151.3 44.5C152 48.8 160.6 46 162.8 46C165.7 46 166.7 49.9 169.6 49.9C176.4 49.9 182.2 45.6 185 40.9C185.7 41.2 186.4 40.9 187.1 40.9C190.3 40.9 191.8 32.3 199.3 32.3C206.5 32.3 198.6 50.9 206.8 50.9C215 50.9 217.9 44.8 225.1 44.8C229.8 44.8 232.6 44.8 237.3 45.9L237.7 44.1C236.3 35.5 234.1 33.7 225.1 31.5C226.2 24.3 233.7 8.19998 239.4 8.19998C272.4 8.19998 295 -8.99998 295 -49.2C313.3 -51.7 314.4 -73.8 325.5 -72.5C354.4 -69 343.1 -89 348.8 -94C363.2 -106.5 385 -106.9 402.6 -117.3C405.1 -118.7 411.2 -126.3 416.9 -126.3C426.3 -126.3 441.3 -115.5 456.4 -115.5C476.1 -115.5 472.2 -142.4 483.3 -142.4C489.7 -142.4 511.8 -139 513.8 -133.4C522.1 -110.2 537.1 -122.6 546.1 -122.6C568.4 -122.6 574.8 -104.7 598.1 -104.7C617.8 -104.7 644.2 -123.6 669.8 -113.7C704.1 -100.4 687.4 -160.3 732.6 -160.3C764.5 -160.3 763.4 -134.8 775.6 -115.5C780.3 -108 796.4 -107.3 802.5 -101.1C807.2 -96.5 811.5 -83.2 822.2 -83.2C834.1 -83.2 836.2 -94 850.9 -94V-85C843 -77.1 840.1 -58.1 831.2 -52.7C823 -48 808.5 -46.9 813.3 -43.8C824.7 -35.7 811 -20.3 811 -20.3Z" fill="white"/>
<path opacity="0.3" d="M701.7 89.4H701C701 89.4 700.7 83.6 700.7 82.6C697.8 82.2 691 78.7 691 73.6C691 69.3 697.1 68.9 698.5 64.7C701.7 55 717.1 55 724.3 47.8C721.4 43.9 716.1 47.8 711 44.6C708.5 43.2 707.1 40.3 703.1 40.3C700.2 40.3 700.2 48.2 698.1 48.2C695.3 48.2 691.7 49.2 688.8 47.5C684.5 44.6 685.9 41.1 681.6 37.8C680.2 36.7 674.1 35.3 674.1 31.7C674.1 24.2 684.5 26.7 689.5 23.1C693.8 19.9 702.1 14.5 704.9 9.79999C705.6 8.69999 707.1 5.09998 710.6 5.09998C713.5 5.09998 717.4 9.79996 717.4 11.9C717.4 17.6 710.6 20.1 710.6 26.6C720.6 26.6 728.9 15.8 740.4 15.8C744.7 15.8 746.5 19.7 751.9 19.7C750.1 23.3 751.9 23.3 751.9 27.6C751.9 31.2 747.9 30.8 747.9 35.1C747.9 36.9 749 41.2 751.5 41.2C752.6 41.2 754 39.4 756.5 39.4C760.8 39.4 766.2 42.3 766.2 46.6C766.2 49.1 763.3 51.3 760.4 51.3V54.9C761.1 55.6 761.9 57.1 764 57.4C764 59.6 765.8 61.3 765.8 63.5C765.8 64.6 762.6 69.2 762.6 71.8C762.6 73.2 762.6 75 764.4 75.4C764 77.2 762.3 78.3 762.3 80.1H767.7C769.9 78 770.6 78 774.9 76.9C774.9 73.7 783.9 73.3 786 72.6C791 71.2 793.2 67.2 793.2 59C793.2 45 787.8 36.8 779.9 28.9C776.7 25.7 773.1 22.5 773.8 16.3C778.1 16.3 781.7 13.8 784.6 10.9C787.1 8.39996 793.6 4.79996 795 1.89996C799.7 -7.80004 802.5 -13.5 811.1 -20.4C811.1 -20.4 824.8 -35.8 812.9 -43.7C808.1 -46.9 822.6 -48 830.8 -52.6C839.8 -58 842.6 -77 850.5 -84.9V-93.9C835.8 -93.9 833.7 -83.1 821.8 -83.1C811 -83.1 806.7 -96.4 802.1 -101C796 -107.1 779.9 -107.8 775.2 -115.4C763 -134.8 764.1 -160.2 732.2 -160.2C687 -160.2 703.8 -100.2 669.4 -113.6C643.8 -123.5 617.4 -104.6 597.7 -104.6C574.4 -104.6 568 -122.5 545.7 -122.5C536.7 -122.5 521.8 -110.1 513.4 -133.3C511.4 -138.8 489.4 -142.3 482.9 -142.3C471.8 -142.3 475.7 -115.4 456 -115.4C440.9 -115.4 425.9 -126.2 416.5 -126.2C410.8 -126.2 404.7 -118.7 402.2 -117.2C384.6 -106.8 362.8 -106.4 348.4 -93.9C342.7 -88.9 354 -68.9 325.1 -72.4C314.1 -73.7 312.9 -51.6 294.6 -49.1C294.6 -8.90004 272 8.29999 239 8.29999C233.3 8.29999 225.7 24.4 224.7 31.6C233.7 33.8 235.8 35.6 237.3 44.2L236.9 46C236.9 52.1 240.1 50.3 245.5 52.1C249.4 53.2 247.6 57.8 249.8 60C255.2 65.4 259.1 65.4 265.9 67.5C272 66.4 274.5 61 280.6 61C283.8 61 292 67.5 292 71C292 80.7 278.7 79.2 278.7 88.6C278.7 92.5 284.1 93.6 284.1 97.6C284.1 102.3 279.8 101.5 275.8 101.5V104.7C276.9 109 276.5 111.9 278 116.2C278.7 118.3 282.3 118 283.7 118.3C290.1 120.5 291.9 125.1 298.4 126.6C306.3 128.4 310.2 126.2 314.5 130.5C318.8 134.8 322.4 133.4 327.8 135.9C330.7 137.3 330.7 139.8 332.1 142.7C333.2 145.2 336.1 142.4 337.8 143.4C343.2 147 346.4 152.4 354.7 152.4C359.7 152.4 364.4 152.4 369.7 152.4C372.9 152.4 374 150.6 376.2 150.6C378 150.6 379.4 156 379.8 158.5C384.8 156 386.2 149.5 395.2 149.5C403.1 149.5 406.7 153.8 412.8 153.8C417.8 153.8 429.7 143.8 432.2 142.3C434.3 140.8 435.1 139.4 436.5 138C439.4 135.1 444 139.1 448.3 137.6L451.5 134.4H453.7C456.6 145.9 464.1 145.2 473.1 149.5C476.3 154.9 481.3 157.4 481.3 164.9C481.3 179.2 472 179.6 472 192.9C472 194 472.4 196.5 473.4 196.5C476.3 196.5 478.1 194.7 480.9 194.7C483.8 194.7 484.5 204.7 488.4 205.4C488.4 212.6 492.7 220.5 499.9 220.5C502.4 220.5 503.5 219.8 505.6 219.8H507.8C507.8 222.6 509.2 223.7 510 223.7C511.1 223.7 511.8 221.5 511.8 220.5C511.8 216.9 511.8 214.8 511.8 211.2C511.8 211.2 520 208.7 521.5 209.1H533C538 211.6 542 204.1 547.3 204.1C553 204.1 556.6 208.1 562.7 208.1C562.7 217.4 569.9 220.3 575.2 222.1C581.3 225 585.6 222.8 592.4 226.1C592 227.9 590.9 235.1 594.2 235.1C598.2 235.1 596 230.4 598.9 227.6C601.4 225.1 608.6 224 611.4 222.6C618.2 219.4 625 220.8 629.3 216.5C629.3 216.5 632.9 209.7 633.6 209.7C637.2 209.7 639 212.6 642.6 212.6C659.1 212.6 663.1 202.6 673.1 196.8C676 195.4 677.8 193.9 678.5 190.3C687.1 190.3 689.6 177 692.8 170.2C695 165.9 704.6 151.6 710 150.5C710 142.6 715.4 139 715.4 128.6C715.4 113.2 711.8 107.5 705.4 97.8C704.3 96 704.3 91.7 701.1 89.9L701.7 89.4Z" fill="white"/>
<path opacity="0.3" d="M16.4 322.8C16.8 324.6 19.3 325.3 20.3 325.3C23.2 325.3 26 322.4 26.7 321C22.2 321 19.7 321.7 16.4 322.8Z" fill="white"/>
</g>
<path opacity="0.1" d="M1556.59 270.409C1553.58 270.275 1550.89 271.752 1549.22 273.968C1547.34 266.112 1540.5 260.137 1532.12 259.667C1532.05 245.836 1521.06 234.423 1507.11 233.953C1494.64 233.55 1483.98 241.942 1481.1 253.625C1479.56 252.886 1477.88 252.483 1476 252.416C1469.1 252.147 1463.33 257.384 1462.79 264.233C1456.89 264.77 1452.13 269.604 1451.93 275.713C1451.73 282.293 1456.89 287.866 1463.47 288.067C1469.5 288.269 1552.97 288 1555.92 288.067C1560.75 288.201 1564.84 284.442 1564.97 279.608C1565.24 274.639 1561.42 270.544 1556.59 270.409Z" fill="white"/>
<path opacity="0.1" d="M1801.92 83.5599C1796.96 83.3585 1792.47 85.7084 1789.72 89.4682C1786.63 76.4431 1775.3 66.5065 1761.36 65.7008C1761.29 42.8062 1743.05 23.8057 1719.92 23C1699.27 22.2615 1681.5 36.2936 1676.74 55.6298C1674.19 54.4213 1671.38 53.6828 1668.36 53.5485C1656.96 53.1457 1647.38 61.8067 1646.44 73.0861C1636.58 73.9589 1628.74 82.0157 1628.33 92.1538C1627.93 103.098 1636.51 112.296 1647.44 112.631C1657.5 112.967 1795.95 112.497 1800.91 112.699C1808.96 112.967 1815.73 106.656 1816 98.5992C1816.27 90.6096 1809.97 83.8285 1801.92 83.5599Z" fill="white"/>
</g>
</svg>
