<svg width="183" height="188" viewBox="0 0 183 188" fill="none" xmlns="http://www.w3.org/2000/svg">
<g opacity="0.1" filter="url(#filter0_d_6_6514)">
<path d="M28.3159 12.2852L85.2616 76.0368L119.888 53.6715L37.0767 6.85061C36.6596 6.64159 36.2424 6.64159 35.8252 6.85061L28.733 9.77691C27.8987 10.195 27.4815 11.4491 28.3159 12.2852Z" fill="#F4F4F4"/>
<path d="M28.9417 9.77686C27.8987 10.1949 27.4816 11.449 28.3159 12.2851L85.2617 76.0367L119.888 53.6714L110.501 48.2368C95.2741 63.2864 64.611 52.2082 28.9417 9.77686Z" fill="#EDEDED"/>
<path d="M118.845 180.339L96.9429 97.566L134.698 80.8442L128.232 175.949C128.232 176.367 128.023 176.785 127.606 177.203L121.348 181.593C120.305 181.802 119.054 181.384 118.845 180.339Z" fill="#F4F4F4"/>
<path d="M121.348 181.175C120.305 181.802 119.054 181.384 118.845 180.339L96.9429 97.566L134.698 80.8442L133.864 91.7134C113.005 96.1028 105.287 127.874 121.348 181.175Z" fill="#EDEDED"/>
<path d="M24.1441 116.587C66.0711 88.369 124.894 48.0278 139.704 40.921C154.514 33.8143 172.453 36.1135 175.791 42.1752C179.128 48.4458 166.195 67.2578 155.14 72.6923C144.293 77.9179 40.4142 122.439 29.776 127.247C19.3464 132.054 12.0457 125.157 24.1441 116.587Z" fill="white"/>
<path d="M106.955 85.8608C61.2737 107.181 29.5677 123.067 18.0951 123.485C16.635 128.292 22.4755 130.591 29.9849 127.247C40.6231 122.44 144.502 77.9179 155.349 72.6924C166.196 67.4669 179.337 48.4459 176 42.1752C175.791 41.7572 175.582 41.5482 175.165 41.1301C169.95 53.6714 137.41 71.6473 106.955 85.8608Z" fill="#EDEDED"/>
<path d="M6.62237 90.0412L24.7699 117.841L40.2057 107.599L11.2114 88.16C11.0028 88.16 10.7942 87.951 10.5856 88.16L7.03951 89.2051C6.62233 89.2051 6.41377 89.6232 6.62237 90.0412Z" fill="#F4F4F4"/>
<path d="M42.2917 156.301L29.1504 125.993L46.255 118.677L46.4636 153.584C46.4636 153.793 46.4636 154.002 46.255 154.002L43.5433 156.301C42.9175 156.719 42.5003 156.51 42.2917 156.301Z" fill="#F4F4F4"/>
<path d="M164.944 61.1961C167.03 58.2698 168.49 55.3435 169.116 52.6262L164.527 55.1345C164.944 57.0157 164.944 58.8969 164.944 61.1961Z" fill="#8CD3F6"/>
<path d="M163.901 53.2533L169.325 50.3269C169.325 48.6548 169.116 47.1916 168.49 45.9375L162.232 49.2818C162.858 50.3269 163.484 51.7901 163.901 53.2533Z" fill="#8CD3F6"/>
<path d="M153.471 39.6669C153.471 39.6669 155.349 40.712 157.435 43.0113L162.024 40.503C159.729 39.8759 156.809 39.4579 153.471 39.6669Z" fill="#8CD3F6"/>
<path d="M158.895 44.4744C159.729 45.3105 160.563 46.3556 161.189 47.6097L167.447 44.2653C166.613 43.2202 165.57 42.3841 164.318 41.7571L158.895 44.4744Z" fill="#8CD3F6"/>
<path d="M112.796 58.897L114.673 62.2413L118.845 59.733L116.968 56.1797C115.508 57.0158 114.047 58.0609 112.796 58.897Z" fill="#8CD3F6"/>
<path d="M107.581 62.2412L109.458 65.5855L113.63 63.0773L111.753 59.7329C110.293 60.569 108.833 61.4051 107.581 62.2412Z" fill="#8CD3F6"/>
<path d="M66.2798 90.0412L67.3227 92.1314L71.4945 89.6232L70.243 87.533C68.9915 88.16 67.7399 88.9961 66.2798 90.0412Z" fill="#8CD3F6"/>
<path d="M71.4944 86.488L72.746 88.7872L76.9178 86.279L75.6663 83.9797C74.2061 84.6068 72.7459 85.6519 71.4944 86.488Z" fill="#8CD3F6"/>
<path d="M86.9304 76.0366L88.3905 78.7539L92.5624 76.2456L91.1023 73.3193C89.6421 74.1554 88.182 75.2005 86.9304 76.0366Z" fill="#8CD3F6"/>
<path d="M76.7095 82.9346L77.961 85.2338L82.1329 82.7255L80.6728 80.2173C79.2126 81.2624 77.961 82.0985 76.7095 82.9346Z" fill="#8CD3F6"/>
<path d="M92.1453 72.4834L93.814 75.4097L97.9858 72.9014L96.3171 69.7661C94.8569 70.8112 93.3968 71.6473 92.1453 72.4834Z" fill="#8CD3F6"/>
<path d="M97.1514 69.1391L98.8201 72.2744L102.992 69.7662L101.323 66.6309C99.8631 67.2579 98.6115 68.303 97.1514 69.1391Z" fill="#8CD3F6"/>
<path d="M102.366 65.7947L104.035 68.93L108.207 66.4217L106.329 63.0774C105.078 63.9135 103.826 64.7496 102.366 65.7947Z" fill="#8CD3F6"/>
<path d="M81.7158 79.5901L83.1759 82.0983L87.3476 79.5901L85.8875 76.8728C84.4274 77.7089 83.1759 78.545 81.7158 79.5901Z" fill="#8CD3F6"/>
<path d="M61.2734 93.3855L62.3164 95.2667L66.4883 92.7584L65.4454 90.8772C63.7766 91.7133 62.525 92.5494 61.2734 93.3855Z" fill="#8CD3F6"/>
<path d="M128.232 48.864L130.109 52.4173L134.281 49.9091L132.404 46.3557C131.152 46.9828 129.9 47.8189 128.232 48.864Z" fill="#8CD3F6"/>
<path d="M137.201 43.6384C136.158 44.0565 134.907 44.8926 133.655 45.7286L135.532 49.282L139.078 46.9828C139.078 46.9828 138.035 45.1016 137.201 43.6384Z" fill="#8CD3F6"/>
<path d="M123.017 52.2084L124.894 55.7618L129.066 53.2535L127.189 49.7002C125.937 50.3273 124.477 51.1633 123.017 52.2084Z" fill="#8CD3F6"/>
<path d="M56.0586 96.9389L56.893 98.6111L61.0648 96.1028L60.0219 94.4307C58.5617 95.2667 57.3102 96.1028 56.0586 96.9389Z" fill="#8CD3F6"/>
<path d="M51.4697 100.283L52.3041 101.747L56.0587 99.4473L55.2244 97.9841C52.7213 99.2383 51.4697 100.283 51.4697 100.283Z" fill="#8CD3F6"/>
<path d="M117.802 55.5527L119.679 59.1061L123.851 56.5978L121.974 53.0444C120.722 53.6715 119.262 54.5076 117.802 55.5527Z" fill="#8CD3F6"/>
<path d="M126.146 83.9795L124.269 80.6351L128.649 78.5449L130.526 82.0983C129.275 82.7254 127.815 83.3524 126.146 83.9795Z" fill="#8CD3F6"/>
<path d="M120.514 86.4878L118.637 83.1434L123.017 81.0532L124.895 84.3976C123.643 85.2337 121.974 85.8607 120.514 86.4878Z" fill="#8CD3F6"/>
<path d="M74.832 105.718L73.7891 103.628L78.1696 101.537L79.4211 103.628C77.7524 104.464 76.2922 105.091 74.832 105.718Z" fill="#8CD3F6"/>
<path d="M80.6729 103.419L79.4214 101.119L83.8018 99.0291L85.0533 101.328C83.5932 102.164 82.1331 102.791 80.6729 103.419Z" fill="#8CD3F6"/>
<path d="M97.7775 96.1029L96.3174 93.3856L100.698 91.2954L102.158 94.2217C100.698 94.8487 99.2376 95.4758 97.7775 96.1029Z" fill="#8CD3F6"/>
<path d="M86.3048 100.91L85.0532 98.6112L89.4337 96.521L90.8939 99.0292C89.2251 99.6563 87.7649 100.283 86.3048 100.91Z" fill="#8CD3F6"/>
<path d="M103.41 93.8036L101.741 90.8773L106.121 88.7871L107.79 91.9224C106.538 92.5495 104.87 93.1766 103.41 93.8036Z" fill="#8CD3F6"/>
<path d="M109.25 91.2954L107.581 88.16L111.962 86.0698L113.63 89.2052C112.17 90.0412 110.71 90.6683 109.25 91.2954Z" fill="#8CD3F6"/>
<path d="M114.882 88.9961L113.213 85.8607L117.594 83.7705L119.471 87.1149C117.802 87.5329 116.342 88.369 114.882 88.9961Z" fill="#8CD3F6"/>
<path d="M92.1455 98.6109L90.6853 96.1027L95.0658 94.0125L96.5259 96.7297C95.0657 97.3568 93.6056 97.9839 92.1455 98.6109Z" fill="#8CD3F6"/>
<path d="M69.2002 108.226L68.1572 106.345L72.5376 104.255L73.5806 106.136C72.1204 106.972 70.4517 107.599 69.2002 108.226Z" fill="#8CD3F6"/>
<path d="M143.25 76.4546L141.373 72.9012L145.753 70.811L147.631 74.3644C146.171 74.9915 144.711 75.6185 143.25 76.4546Z" fill="#8CD3F6"/>
<path d="M152.428 71.8563C151.385 72.4834 150.134 73.1104 148.674 73.7375L146.796 70.1841L150.551 68.512C150.551 68.512 151.594 70.3931 152.428 71.8563Z" fill="#8CD3F6"/>
<path d="M137.619 78.9632L135.741 75.4098L140.122 73.3196L141.999 76.873C140.539 77.5 139.079 78.3361 137.619 78.9632Z" fill="#8CD3F6"/>
<path d="M63.3595 110.525L62.5251 108.853L66.9056 106.763L67.9486 108.435C66.2799 109.271 64.8197 109.898 63.3595 110.525Z" fill="#8CD3F6"/>
<path d="M58.1448 112.616L57.519 111.152L61.4823 109.271L62.3167 110.734C59.6049 111.989 58.1448 112.616 58.1448 112.616Z" fill="#8CD3F6"/>
<path d="M131.986 81.4712L130.109 77.9179L134.49 75.8276L136.367 79.381C134.907 80.2171 133.447 80.8442 131.986 81.4712Z" fill="#8CD3F6"/>
<path d="M8.70829 88.5781L7.03951 89.2052C6.62233 89.4142 6.41377 89.8322 6.62237 90.0413L24.7699 117.841L40.2057 107.599L36.8683 105.3C28.7332 112.616 15.1747 105.509 8.70829 88.5781Z" fill="#EDEDED"/>
<path d="M44.5863 155.256L43.1262 156.51C42.709 156.719 42.2918 156.719 42.0832 156.301L28.9419 125.993L46.0464 118.677V122.857C35.6169 125.366 34.1567 140.624 44.5863 155.256Z" fill="#EDEDED"/>
</g>
<defs>
<filter id="filter0_d_6_6514" x="0.540527" y="0.693848" width="181.987" height="186.951" filterUnits="userSpaceOnUse" color-interpolation-filters="sRGB">
<feFlood flood-opacity="0" result="BackgroundImageFix"/>
<feColorMatrix in="SourceAlpha" type="matrix" values="0 0 0 0 0 0 0 0 0 0 0 0 0 0 0 0 0 0 127 0" result="hardAlpha"/>
<feOffset/>
<feGaussianBlur stdDeviation="3"/>
<feColorMatrix type="matrix" values="0 0 0 0 0 0 0 0 0 0 0 0 0 0 0 0 0 0 0.24 0"/>
<feBlend mode="normal" in2="BackgroundImageFix" result="effect1_dropShadow_6_6514"/>
<feBlend mode="normal" in="SourceGraphic" in2="effect1_dropShadow_6_6514" result="shape"/>
</filter>
</defs>
</svg>
