<svg width="673" height="452" viewBox="0 0 673 452" fill="none" xmlns="http://www.w3.org/2000/svg">
<g opacity="0.1">
<path d="M642.138 131.299L601.433 77.672L623.86 54.1495L647.7 125.25C647.82 125.698 647.657 125.982 647.493 126.265L644.269 131.208C643.719 131.835 642.542 131.911 642.138 131.299Z" fill="#F4F4F4"/>
<path d="M644.209 130.984C643.719 131.835 642.765 131.851 642.078 131.075L601.373 77.4482L623.801 53.9257L626.466 62.0878C612.776 71.7539 616.692 97.0937 644.209 130.984Z" fill="#EDEDED"/>
<path d="M525.868 36.0244L586.408 65.3844L605.136 38.775L530.864 29.6479C530.58 29.484 530.193 29.8275 529.747 29.9472L525.388 34.2337C525.062 34.8011 525.302 35.6964 525.868 36.0244Z" fill="#F4F4F4"/>
<path d="M525.835 34.114C525.062 34.8011 525.302 35.6964 525.868 36.0244L586.408 65.3843L605.136 38.775L596.701 37.6764C590.068 53.1284 564.279 54.2807 525.835 34.114Z" fill="#EDEDED"/>
<path d="M561.185 118.684C589.252 90.2921 629.025 51.0863 636.755 40.6185C644.485 30.1507 645.474 15.9712 641.147 12.3326C636.88 8.91771 620.339 15.9888 614.527 23.7837C608.938 31.5187 558.987 105.119 553.845 112.734C548.419 120.185 552.632 126.973 561.185 118.684Z" fill="white"/>
<path d="M597.021 59.4219C573.788 91.5566 557.005 113.807 554.8 122.554C551.046 122.84 550.01 118.08 553.621 112.794C558.823 105.403 608.714 31.5786 614.303 23.8436C619.892 16.1085 636.657 8.97763 640.924 12.3925C641.207 12.5564 641.49 12.7204 641.61 13.1681C631.215 15.4738 612.584 37.9787 597.021 59.4219Z" fill="#EDEDED"/>
<path d="M578.826 136.268L560.112 118.252L570.255 107.857L580.907 133.312C580.967 133.536 580.967 133.536 580.803 133.819L579.556 136.313C579.616 136.536 579.169 136.656 578.826 136.268Z" fill="#F4F4F4"/>
<path d="M533.127 98.8535L554.532 113.51L562.572 101.519L535.551 96.2847C535.327 96.3445 535.327 96.3445 535.104 96.4044L532.947 98.182C533.007 98.4058 532.843 98.6895 533.127 98.8535Z" fill="#F4F4F4"/>
<path d="M624.753 18.165C627.314 16.999 629.771 16.3406 631.901 16.2496L629.21 19.6096C627.854 19.0135 626.497 18.4175 624.753 18.165Z" fill="#8CD3F6"/>
<path d="M630.791 20.1457L633.868 16.4422C635.105 16.5906 636.179 17.0227 637.089 17.7384L633.461 22.0692C632.551 21.3534 631.701 20.8615 630.791 20.1457Z" fill="#8CD3F6"/>
<path d="M639.494 30.2887C639.494 30.2887 638.851 28.7817 637.581 26.723L640.108 23.6467C640.365 25.4972 640.234 27.6912 639.494 30.2887Z" fill="#8CD3F6"/>
<path d="M636.491 25.3356C635.804 24.56 635.341 23.7245 634.431 23.0088L638.059 18.678C638.746 19.4536 639.209 20.2891 639.569 21.6321L636.491 25.3356Z" fill="#8CD3F6"/>
<path d="M618.669 58.8993L616.222 56.916L618.87 54.2873L621.316 56.2706C620.543 56.9577 619.606 57.9285 618.669 58.8993Z" fill="#8CD3F6"/>
<path d="M615.308 62.4388L612.921 60.6793L615.508 57.8269L617.955 59.8102C617.182 60.4973 616.245 61.4681 615.308 62.4388Z" fill="#8CD3F6"/>
<path d="M587.792 90.2036L586.315 89.1599L589.126 86.2475L590.663 87.5151C589.666 88.262 588.729 89.2328 587.792 90.2036Z" fill="#8CD3F6"/>
<path d="M591.376 86.6041L589.839 85.3366L592.427 82.4841L593.964 83.7516C593.087 84.9463 592.15 85.917 591.376 86.6041Z" fill="#8CD3F6"/>
<path d="M601.58 76.4331L599.7 74.7777L602.287 71.9252L604.167 73.5806C603.454 74.4915 602.517 75.4623 601.58 76.4331Z" fill="#8CD3F6"/>
<path d="M594.797 83.2884L593.26 82.0209L595.848 79.1684L597.668 80.5999C596.448 81.4067 595.734 82.3177 594.797 83.2884Z" fill="#8CD3F6"/>
<path d="M605.164 72.8337L603.061 71.2382L605.648 68.3857L607.812 70.2051C606.815 70.952 605.878 71.9228 605.164 72.8337Z" fill="#8CD3F6"/>
<path d="M608.525 69.294L606.362 67.4747L608.949 64.6222L611.113 66.4416C610.236 67.6362 609.522 68.5471 608.525 69.294Z" fill="#8CD3F6"/>
<path d="M611.946 65.9784L609.783 64.159L612.371 61.3066L614.534 63.1259C613.597 64.0967 612.883 65.0076 611.946 65.9784Z" fill="#8CD3F6"/>
<path d="M598.158 79.7489L596.338 78.3173L598.926 75.4648L600.746 76.8964C600.092 78.0311 599.095 78.7781 598.158 79.7489Z" fill="#8CD3F6"/>
<path d="M584.37 93.5192L583.117 92.4156L585.764 89.787L587.018 90.8906C586.081 91.8613 585.144 92.8321 584.37 93.5192Z" fill="#8CD3F6"/>
<path d="M628.752 48.2805L626.305 46.2972L628.893 43.4447L631.34 45.428C630.626 46.339 629.689 47.3097 628.752 48.2805Z" fill="#8CD3F6"/>
<path d="M634.091 42.2919C633.541 42.9192 632.827 43.8301 631.89 44.8009L629.443 42.8176L631.704 40.5325C631.868 40.2488 633.121 41.3523 634.091 42.2919Z" fill="#8CD3F6"/>
<path d="M625.391 51.8201L622.944 49.8368L625.532 46.9843L627.979 48.9677C627.265 49.8786 626.328 50.8494 625.391 51.8201Z" fill="#8CD3F6"/>
<path d="M581.009 97.0587L579.816 96.179L582.403 93.3265L583.597 94.2063C582.72 95.4009 581.723 96.1478 581.009 97.0587Z" fill="#8CD3F6"/>
<path d="M577.751 100.091L576.841 99.3751L579.265 96.8063L580.235 97.7459C578.748 99.344 577.751 100.091 577.751 100.091Z" fill="#8CD3F6"/>
<path d="M622.03 55.3598L619.583 53.3765L622.171 50.524L624.677 52.7312C623.904 53.4183 622.967 54.389 622.03 55.3598Z" fill="#8CD3F6"/>
<path d="M601.198 44.6284L603.645 46.6117L605.889 43.3714L603.442 41.3881C602.789 42.5228 602.135 43.6576 601.198 44.6284Z" fill="#8CD3F6"/>
<path d="M598.463 48.7198L600.85 50.4793L603.154 47.4628L600.708 45.4795C600.054 46.6143 599.4 47.749 598.463 48.7198Z" fill="#8CD3F6"/>
<path d="M576.974 81.1071L578.451 82.1508L580.532 79.1942L578.995 77.9267C578.342 79.0614 577.688 80.1962 576.974 81.1071Z" fill="#8CD3F6"/>
<path d="M579.485 77.0755L581.022 78.3431L583.266 75.1028L581.73 73.8352C581.076 74.97 580.199 76.1646 579.485 77.0755Z" fill="#8CD3F6"/>
<path d="M587.749 65.0253L589.629 66.6806L591.873 63.4403L589.993 61.785C589.056 62.7558 588.402 63.8905 587.749 65.0253Z" fill="#8CD3F6"/>
<path d="M582.22 72.9842L584.04 74.4157L586.284 71.1754L584.464 69.7439C583.811 70.8787 582.933 72.0733 582.22 72.9842Z" fill="#8CD3F6"/>
<path d="M590.483 60.934L592.587 62.5295L594.831 59.2892L592.668 57.4699C591.79 58.6645 591.137 59.7993 590.483 60.934Z" fill="#8CD3F6"/>
<path d="M593.218 56.8427L595.381 58.662L597.625 55.4217L595.462 53.6024C594.525 54.5732 593.871 55.7079 593.218 56.8427Z" fill="#8CD3F6"/>
<path d="M595.952 52.7513L598.116 54.5706L600.36 51.3303L598.197 49.511C597.32 50.7056 596.606 51.6165 595.952 52.7513Z" fill="#8CD3F6"/>
<path d="M584.954 68.8929L586.774 70.3244L589.019 67.0841L587.199 65.6526C586.321 66.8472 585.668 67.982 584.954 68.8929Z" fill="#8CD3F6"/>
<path d="M574.24 85.1983L575.493 86.3019L577.737 83.0616L576.484 81.9581C575.607 83.1527 574.953 84.2874 574.24 85.1983Z" fill="#8CD3F6"/>
<path d="M609.745 32.7422L612.192 34.7255L614.436 31.4852L611.989 29.5019C611.335 30.6367 610.398 31.6074 609.745 32.7422Z" fill="#8CD3F6"/>
<path d="M614.68 26.1419C614.13 26.7691 613.416 27.68 612.703 28.5909L615.149 30.5743L617.067 27.9014C616.903 28.185 615.65 27.0815 614.68 26.1419Z" fill="#8CD3F6"/>
<path d="M606.95 36.6097L609.397 38.593L611.641 35.3527L609.194 33.3694C608.317 34.564 607.664 35.6988 606.95 36.6097Z" fill="#8CD3F6"/>
<path d="M571.505 89.2898L572.699 90.1695L574.943 86.9292L573.75 86.0495C572.873 87.2441 572.219 88.3788 571.505 89.2898Z" fill="#8CD3F6"/>
<path d="M569.158 93.0376L570.128 93.9772L572.045 91.3043L571.075 90.3647C569.871 92.1267 569.158 93.0376 569.158 93.0376Z" fill="#8CD3F6"/>
<path d="M603.992 40.761L606.439 42.7443L608.683 39.504L606.237 37.5207C605.583 38.6555 604.869 39.5664 603.992 40.761Z" fill="#8CD3F6"/>
<path d="M580.373 134.894L579.779 136.253C579.616 136.536 579.169 136.656 579.109 136.432L560.395 118.416L570.539 108.021L571.825 111.035C564.726 115.816 568.292 127.336 580.373 134.894Z" fill="#EDEDED"/>
<path d="M534.33 97.0915L533.17 98.1221C533.007 98.4058 532.843 98.6895 533.126 98.8535L554.531 113.51L562.572 101.519L559.531 100.895C556.133 108.763 544.107 107.667 534.33 97.0915Z" fill="#EDEDED"/>
</g>
<path opacity="0.2" d="M-267.28 376.234C-225.642 439.493 -154.989 414.681 -129.536 364.672C-76.9865 260.968 28.2069 242.717 96.3494 289.344C161.517 333.929 83.2401 400.525 37.627 332.249C-19.9169 245.879 118.639 163.334 356.18 188.902C448.06 198.753 536.157 168.051 545.595 126.996" stroke="#127E76" stroke-width="2" stroke-miterlimit="10" stroke-linecap="round" stroke-dasharray="3.75 3.75"/>
</svg>
